<?xml version="1.0" encoding="UTF-8"?>
<!DOCTYPE svg PUBLIC "-//W3C//DTD SVG 1.1//EN" "http://www.w3.org/Graphics/SVG/1.1/DTD/svg11.dtd">
<svg version="1.1" xmlns="http://www.w3.org/2000/svg" xmlns:xlink="http://www.w3.org/1999/xlink" x="0" y="0" width="300" height="425" viewBox="0, 0, 300, 425">
  <g id="Ebene_1">
    <path d="M0.5,8.184 L300.5,8.184" fill-opacity="0" stroke="#000000" stroke-width="4"/>
    <path d="M0.5,32.202 L300.5,32.202" fill-opacity="0" stroke="#000000" stroke-width="4"/>
    <path d="M0.5,56.221 L300.5,56.221" fill-opacity="0" stroke="#000000" stroke-width="4"/>
    <path d="M0.5,80.239 L300.5,80.239" fill-opacity="0" stroke="#000000" stroke-width="4"/>
    <path d="M0.5,104.258 L300.5,104.258" fill-opacity="0" stroke="#000000" stroke-width="4"/>
    <path d="M0.5,152.295 L300.5,152.295" fill-opacity="0" stroke="#000000" stroke-width="4"/>
    <path d="M0.5,200.332 L300.5,200.332" fill-opacity="0" stroke="#000000" stroke-width="4"/>
    <path d="M0.5,128.277 L300.5,128.277" fill-opacity="0" stroke="#000000" stroke-width="4"/>
    <path d="M0.5,176.314 L300.5,176.314" fill-opacity="0" stroke="#000000" stroke-width="4"/>
    <path d="M0.5,224.351 L300.5,224.351" fill-opacity="0" stroke="#000000" stroke-width="4"/>
    <path d="M0.5,248.37 L300.5,248.37" fill-opacity="0" stroke="#000000" stroke-width="4"/>
    <path d="M0.5,272.388 L300.5,272.388" fill-opacity="0" stroke="#000000" stroke-width="4"/>
    <path d="M0.5,296.407 L300.5,296.407" fill-opacity="0" stroke="#000000" stroke-width="4"/>
    <path d="M0.5,320.426 L300.5,320.426" fill-opacity="0" stroke="#000000" stroke-width="4"/>
    <path d="M0.5,344.444 L300.5,344.444" fill-opacity="0" stroke="#000000" stroke-width="4"/>
    <path d="M0.5,368.463 L300.5,368.463" fill-opacity="0" stroke="#000000" stroke-width="4"/>
    <path d="M0.5,392.481 L300.5,392.481" fill-opacity="0" stroke="#000000" stroke-width="4"/>
    <path d="M0.5,416.5 L300.5,416.5" fill-opacity="0" stroke="#000000" stroke-width="4"/>
  </g>
</svg>
