<?xml version="1.0" encoding="UTF-8"?>
<!DOCTYPE svg PUBLIC "-//W3C//DTD SVG 1.1//EN" "http://www.w3.org/Graphics/SVG/1.1/DTD/svg11.dtd">
<svg version="1.1" xmlns="http://www.w3.org/2000/svg" xmlns:xlink="http://www.w3.org/1999/xlink" x="0" y="0" width="298.55" height="422.8" viewBox="0, 0, 853, 1208">
  <g id="Ebene_1">
    <path d="M-0,0 L853,0 L853,1208 L-0,1208 L-0,0 z" fill="#F2F2F2"/>
    <g>
      <path d="M-7,0 L858.989,0 L858.989,7.089 L-7,7.089 L-7,0 z" fill="#7A8FA5"/>
      <path d="M-7,17.623 L858.989,17.623 L858.989,24.713 L-7,24.713 L-7,17.623 z" fill="#7A8FA5"/>
      <path d="M-7,35.246 L660.465,35.246 L660.465,42.336 L-7,42.336 L-7,35.246 z" fill="#7A8FA5"/>
      <path d="M-7,52.869 L858.989,52.869 L858.989,59.959 L-7,59.959 L-7,52.869 z" fill="#7A8FA5"/>
      <path d="M-7,370.086 L858.989,370.086 L858.989,377.175 L-7,377.175 L-7,370.086 z" fill="#7A8FA5"/>
      <path d="M-7,387.709 L858.989,387.709 L858.989,394.798 L-7,394.798 L-7,387.709 z" fill="#7A8FA5"/>
      <path d="M-7,405.332 L660.465,405.332 L660.465,412.422 L-7,412.422 L-7,405.332 z" fill="#7A8FA5"/>
      <path d="M-7,422.955 L858.989,422.955 L858.989,430.045 L-7,430.045 L-7,422.955 z" fill="#7A8FA5"/>
      <path d="M-7,70.493 L858.989,70.493 L858.989,77.582 L-7,77.582 L-7,70.493 z" fill="#7A8FA5"/>
      <path d="M-7,88.116 L491.761,88.116 L491.761,95.205 L-7,95.205 L-7,88.116 z" fill="#7A8FA5"/>
      <path d="M-7,105.739 L858.989,105.739 L858.989,112.828 L-7,112.828 L-7,105.739 z" fill="#7A8FA5"/>
      <path d="M-7,123.362 L858.989,123.362 L858.989,130.451 L-7,130.451 L-7,123.362 z" fill="#7A8FA5"/>
      <path d="M-7,140.985 L191.115,140.985 L191.115,148.075 L-7,148.075 L-7,140.985 z" fill="#7A8FA5"/>
      <path d="M-7,158.608 L858.989,158.608 L858.989,165.698 L-7,165.698 L-7,158.608 z" fill="#7A8FA5"/>
      <path d="M-7,176.231 L858.989,176.231 L858.989,183.321 L-7,183.321 L-7,176.231 z" fill="#7A8FA5"/>
      <path d="M-7,440.578 L858.989,440.578 L858.989,447.668 L-7,447.668 L-7,440.578 z" fill="#7A8FA5"/>
      <path d="M-7,458.202 L858.989,458.202 L858.989,465.291 L-7,465.291 L-7,458.202 z" fill="#7A8FA5"/>
      <path d="M-7,475.825 L660.465,475.825 L660.465,482.914 L-7,482.914 L-7,475.825 z" fill="#7A8FA5"/>
      <path d="M-7,493.448 L858.989,493.448 L858.989,500.537 L-7,500.537 L-7,493.448 z" fill="#7A8FA5"/>
      <path d="M-7,511.071 L858.989,511.071 L858.989,518.16 L-7,518.16 L-7,511.071 z" fill="#7A8FA5"/>
      <path d="M-7,528.694 L491.761,528.694 L491.761,535.784 L-7,535.784 L-7,528.694 z" fill="#7A8FA5"/>
      <path d="M-7,546.317 L858.989,546.317 L858.989,553.407 L-7,553.407 L-7,546.317 z" fill="#7A8FA5"/>
      <path d="M-7,563.94 L858.989,563.94 L858.989,571.03 L-7,571.03 L-7,563.94 z" fill="#7A8FA5"/>
      <path d="M-7,581.564 L191.115,581.564 L191.115,588.653 L-7,588.653 L-7,581.564 z" fill="#7A8FA5"/>
      <path d="M-7,599.187 L858.989,599.187 L858.989,606.276 L-7,606.276 L-7,599.187 z" fill="#7A8FA5"/>
      <path d="M-7,193.855 L272.812,193.855 L272.812,200.944 L-7,200.944 L-7,193.855 z" fill="#7A8FA5"/>
      <path d="M-7,211.478 L687.425,211.478 L687.425,218.567 L-7,218.567 L-7,211.478 z" fill="#7A8FA5"/>
      <path d="M-7,229.101 L858.989,229.101 L858.989,236.19 L-7,236.19 L-7,229.101 z" fill="#7A8FA5"/>
      <path d="M-7,246.724 L858.989,246.724 L858.989,253.813 L-7,253.813 L-7,246.724 z" fill="#7A8FA5"/>
      <path d="M-7,264.347 L650.661,264.347 L650.661,271.436 L-7,271.436 L-7,264.347 z" fill="#7A8FA5"/>
      <path d="M-7,281.97 L416.803,281.97 L416.803,289.06 L-7,289.06 L-7,281.97 z" fill="#7A8FA5"/>
      <path d="M-7,299.593 L858.989,299.593 L858.989,306.683 L-7,306.683 L-7,299.593 z" fill="#7A8FA5"/>
      <path d="M-7,317.217 L858.989,317.217 L858.989,324.306 L-7,324.306 L-7,317.217 z" fill="#7A8FA5"/>
      <path d="M-7,616.81 L858.989,616.81 L858.989,623.899 L-7,623.899 L-7,616.81 z" fill="#7A8FA5"/>
      <path d="M-7,634.433 L858.989,634.433 L858.989,641.522 L-7,641.522 L-7,634.433 z" fill="#7A8FA5"/>
      <path d="M-7,652.056 L660.465,652.056 L660.465,659.146 L-7,659.146 L-7,652.056 z" fill="#7A8FA5"/>
      <path d="M-7,669.679 L858.989,669.679 L858.989,676.769 L-7,676.769 L-7,669.679 z" fill="#7A8FA5"/>
      <path d="M-7,687.302 L858.989,687.302 L858.989,694.392 L-7,694.392 L-7,687.302 z" fill="#7A8FA5"/>
      <path d="M-7,704.926 L491.761,704.926 L491.761,712.015 L-7,712.015 L-7,704.926 z" fill="#7A8FA5"/>
      <path d="M-7,722.549 L858.989,722.549 L858.989,729.638 L-7,729.638 L-7,722.549 z" fill="#7A8FA5"/>
      <path d="M-7,740.172 L858.989,740.172 L858.989,747.261 L-7,747.261 L-7,740.172 z" fill="#7A8FA5"/>
      <path d="M-7,757.795 L191.115,757.795 L191.115,764.884 L-7,764.884 L-7,757.795 z" fill="#7A8FA5"/>
      <path d="M-7,775.418 L858.989,775.418 L858.989,782.508 L-7,782.508 L-7,775.418 z" fill="#7A8FA5"/>
      <path d="M-7,793.041 L858.989,793.041 L858.989,800.131 L-7,800.131 L-7,793.041 z" fill="#7A8FA5"/>
      <path d="M-7,810.664 L272.812,810.664 L272.812,817.754 L-7,817.754 L-7,810.664 z" fill="#7A8FA5"/>
      <path d="M-7,828.288 L687.425,828.288 L687.425,835.377 L-7,835.377 L-7,828.288 z" fill="#7A8FA5"/>
      <path d="M-7,845.911 L858.989,845.911 L858.989,853 L-7,853 L-7,845.911 z" fill="#7A8FA5"/>
      <path d="M-7,334.84 L858.989,334.84 L858.989,341.929 L-7,341.929 L-7,334.84 z" fill="#7A8FA5"/>
      <path d="M-7,352.463 L241.155,352.463 L241.155,359.552 L-7,359.552 L-7,352.463 z" fill="#7A8FA5"/>
      <path d="M-7,864 L858.989,864 L858.989,871.089 L-7,871.089 L-7,864 z" fill="#7A8FA5"/>
      <path d="M-7,881.623 L858.989,881.623 L858.989,888.713 L-7,888.713 L-7,881.623 z" fill="#7A8FA5"/>
      <path d="M-7,899.246 L660.465,899.246 L660.465,906.336 L-7,906.336 L-7,899.246 z" fill="#7A8FA5"/>
      <path d="M-7,916.869 L858.989,916.869 L858.989,923.959 L-7,923.959 L-7,916.869 z" fill="#7A8FA5"/>
      <path d="M-7,934.493 L858.989,934.493 L858.989,941.582 L-7,941.582 L-7,934.493 z" fill="#7A8FA5"/>
      <path d="M-7,952.116 L491.761,952.116 L491.761,959.205 L-7,959.205 L-7,952.116 z" fill="#7A8FA5"/>
      <path d="M-7,969.739 L858.989,969.739 L858.989,976.828 L-7,976.828 L-7,969.739 z" fill="#7A8FA5"/>
      <path d="M-7,987.362 L858.989,987.362 L858.989,994.451 L-7,994.451 L-7,987.362 z" fill="#7A8FA5"/>
      <path d="M-7,1004.985 L191.115,1004.985 L191.115,1012.075 L-7,1012.075 L-7,1004.985 z" fill="#7A8FA5"/>
      <path d="M-7,1022.608 L858.989,1022.608 L858.989,1029.698 L-7,1029.698 L-7,1022.608 z" fill="#7A8FA5"/>
      <path d="M-7,1040.231 L858.989,1040.231 L858.989,1047.321 L-7,1047.321 L-7,1040.231 z" fill="#7A8FA5"/>
      <path d="M-7,1057.854 L272.812,1057.854 L272.812,1064.944 L-7,1064.944 L-7,1057.854 z" fill="#7A8FA5"/>
      <path d="M-7,1075.478 L687.425,1075.478 L687.425,1082.567 L-7,1082.567 L-7,1075.478 z" fill="#7A8FA5"/>
      <path d="M-7,1093.101 L858.989,1093.101 L858.989,1100.19 L-7,1100.19 L-7,1093.101 z" fill="#7A8FA5"/>
      <path d="M-7,1110.724 L858.989,1110.724 L858.989,1117.813 L-7,1117.813 L-7,1110.724 z" fill="#7A8FA5"/>
      <path d="M-7,1128.347 L650.661,1128.347 L650.661,1135.437 L-7,1135.437 L-7,1128.347 z" fill="#7A8FA5"/>
      <path d="M-7,1145.97 L416.803,1145.97 L416.803,1153.06 L-7,1153.06 L-7,1145.97 z" fill="#7A8FA5"/>
      <path d="M-7,1163.593 L858.989,1163.593 L858.989,1170.683 L-7,1170.683 L-7,1163.593 z" fill="#7A8FA5"/>
      <path d="M-7,1181.217 L858.989,1181.217 L858.989,1188.306 L-7,1188.306 L-7,1181.217 z" fill="#7A8FA5"/>
      <path d="M-7,1200.911 L858.989,1200.911 L858.989,1208 L-7,1208 L-7,1200.911 z" fill="#7A8FA5"/>
    </g>
  </g>
</svg>
