<?xml version="1.0" encoding="UTF-8"?>
<!DOCTYPE svg PUBLIC "-//W3C//DTD SVG 1.1//EN" "http://www.w3.org/Graphics/SVG/1.1/DTD/svg11.dtd">
<svg version="1.1" xmlns="http://www.w3.org/2000/svg" xmlns:xlink="http://www.w3.org/1999/xlink" x="0" y="0" width="301" height="426.5" viewBox="0, 0, 602, 853">
  <g id="Ebene_1">
    <g>
      <path d="M-10,-0 L607.989,-0 L607.989,7.089 L-10,7.089 L-10,-0 z" fill="#2C3E50"/>
      <path d="M-10,17.623 L607.989,17.623 L607.989,24.713 L-10,24.713 L-10,17.623 z" fill="#2C3E50"/>
      <path d="M-10,35.246 L466.318,35.246 L466.318,42.336 L-10,42.336 L-10,35.246 z" fill="#2C3E50"/>
      <path d="M-10,52.869 L607.989,52.869 L607.989,59.959 L-10,59.959 L-10,52.869 z" fill="#2C3E50"/>
      <path d="M-10,370.086 L607.989,370.086 L607.989,377.175 L-10,377.175 L-10,370.086 z" fill="#2C3E50"/>
      <path d="M-10,387.709 L607.989,387.709 L607.989,394.798 L-10,394.798 L-10,387.709 z" fill="#2C3E50"/>
      <path d="M-10,405.332 L466.318,405.332 L466.318,412.422 L-10,412.422 L-10,405.332 z" fill="#2C3E50"/>
      <path d="M-10,422.955 L607.989,422.955 L607.989,430.045 L-10,430.045 L-10,422.955 z" fill="#2C3E50"/>
      <path d="M-10,70.493 L607.989,70.493 L607.989,77.582 L-10,77.582 L-10,70.493 z" fill="#2C3E50"/>
      <path d="M-10,88.116 L345.927,88.116 L345.927,95.205 L-10,95.205 L-10,88.116 z" fill="#2C3E50"/>
      <path d="M-10,105.739 L607.989,105.739 L607.989,112.828 L-10,112.828 L-10,105.739 z" fill="#2C3E50"/>
      <path d="M-10,123.362 L607.989,123.362 L607.989,130.451 L-10,130.451 L-10,123.362 z" fill="#2C3E50"/>
      <path d="M-10,140.985 L131.38,140.985 L131.38,148.075 L-10,148.075 L-10,140.985 z" fill="#2C3E50"/>
      <path d="M-10,158.608 L607.989,158.608 L607.989,165.698 L-10,165.698 L-10,158.608 z" fill="#2C3E50"/>
      <path d="M-10,176.231 L607.989,176.231 L607.989,183.321 L-10,183.321 L-10,176.231 z" fill="#2C3E50"/>
      <path d="M-10,440.578 L607.989,440.578 L607.989,447.668 L-10,447.668 L-10,440.578 z" fill="#2C3E50"/>
      <path d="M-10,458.202 L607.989,458.202 L607.989,465.291 L-10,465.291 L-10,458.202 z" fill="#2C3E50"/>
      <path d="M-10,475.825 L466.318,475.825 L466.318,482.914 L-10,482.914 L-10,475.825 z" fill="#2C3E50"/>
      <path d="M-10,493.448 L607.989,493.448 L607.989,500.537 L-10,500.537 L-10,493.448 z" fill="#2C3E50"/>
      <path d="M-10,511.071 L607.989,511.071 L607.989,518.16 L-10,518.16 L-10,511.071 z" fill="#2C3E50"/>
      <path d="M-10,528.694 L345.927,528.694 L345.927,535.784 L-10,535.784 L-10,528.694 z" fill="#2C3E50"/>
      <path d="M-10,546.317 L607.989,546.317 L607.989,553.407 L-10,553.407 L-10,546.317 z" fill="#2C3E50"/>
      <path d="M-10,563.94 L607.989,563.94 L607.989,571.03 L-10,571.03 L-10,563.94 z" fill="#2C3E50"/>
      <path d="M-10,581.564 L131.38,581.564 L131.38,588.653 L-10,588.653 L-10,581.564 z" fill="#2C3E50"/>
      <path d="M-10,599.187 L607.989,599.187 L607.989,606.276 L-10,606.276 L-10,599.187 z" fill="#2C3E50"/>
      <path d="M-10,193.855 L189.68,193.855 L189.68,200.944 L-10,200.944 L-10,193.855 z" fill="#2C3E50"/>
      <path d="M-10,211.478 L485.557,211.478 L485.557,218.567 L-10,218.567 L-10,211.478 z" fill="#2C3E50"/>
      <path d="M-10,229.101 L607.989,229.101 L607.989,236.19 L-10,236.19 L-10,229.101 z" fill="#2C3E50"/>
      <path d="M-10,246.724 L607.989,246.724 L607.989,253.813 L-10,253.813 L-10,246.724 z" fill="#2C3E50"/>
      <path d="M-10,264.347 L459.322,264.347 L459.322,271.436 L-10,271.436 L-10,264.347 z" fill="#2C3E50"/>
      <path d="M-10,281.97 L292.436,281.97 L292.436,289.06 L-10,289.06 L-10,281.97 z" fill="#2C3E50"/>
      <path d="M-10,299.593 L607.989,299.593 L607.989,306.683 L-10,306.683 L-10,299.593 z" fill="#2C3E50"/>
      <path d="M-10,317.216 L607.989,317.216 L607.989,324.306 L-10,324.306 L-10,317.216 z" fill="#2C3E50"/>
      <path d="M-10,616.81 L607.989,616.81 L607.989,623.899 L-10,623.899 L-10,616.81 z" fill="#2C3E50"/>
      <path d="M-10,634.433 L607.989,634.433 L607.989,641.522 L-10,641.522 L-10,634.433 z" fill="#2C3E50"/>
      <path d="M-10,652.056 L466.318,652.056 L466.318,659.146 L-10,659.146 L-10,652.056 z" fill="#2C3E50"/>
      <path d="M-10,669.679 L607.989,669.679 L607.989,676.769 L-10,676.769 L-10,669.679 z" fill="#2C3E50"/>
      <path d="M-10,687.302 L607.989,687.302 L607.989,694.392 L-10,694.392 L-10,687.302 z" fill="#2C3E50"/>
      <path d="M-10,704.926 L345.927,704.926 L345.927,712.015 L-10,712.015 L-10,704.926 z" fill="#2C3E50"/>
      <path d="M-10,722.549 L607.989,722.549 L607.989,729.638 L-10,729.638 L-10,722.549 z" fill="#2C3E50"/>
      <path d="M-10,740.172 L607.989,740.172 L607.989,747.261 L-10,747.261 L-10,740.172 z" fill="#2C3E50"/>
      <path d="M-10,757.795 L131.38,757.795 L131.38,764.884 L-10,764.884 L-10,757.795 z" fill="#2C3E50"/>
      <path d="M-10,775.418 L607.989,775.418 L607.989,782.508 L-10,782.508 L-10,775.418 z" fill="#2C3E50"/>
      <path d="M-10,793.041 L607.989,793.041 L607.989,800.131 L-10,800.131 L-10,793.041 z" fill="#2C3E50"/>
      <path d="M-10,810.664 L189.68,810.664 L189.68,817.754 L-10,817.754 L-10,810.664 z" fill="#2C3E50"/>
      <path d="M-10,828.288 L485.557,828.288 L485.557,835.377 L-10,835.377 L-10,828.288 z" fill="#2C3E50"/>
      <path d="M-10,845.911 L607.989,845.911 L607.989,853 L-10,853 L-10,845.911 z" fill="#2C3E50"/>
      <path d="M-10,334.84 L607.989,334.84 L607.989,341.929 L-10,341.929 L-10,334.84 z" fill="#2C3E50"/>
      <path d="M-10,352.463 L167.089,352.463 L167.089,359.552 L-10,359.552 L-10,352.463 z" fill="#2C3E50"/>
    </g>
  </g>
</svg>
