<?xml version="1.0" encoding="UTF-8"?>
<!DOCTYPE svg PUBLIC "-//W3C//DTD SVG 1.1//EN" "http://www.w3.org/Graphics/SVG/1.1/DTD/svg11.dtd">
<svg version="1.1" xmlns="http://www.w3.org/2000/svg" xmlns:xlink="http://www.w3.org/1999/xlink" x="0" y="0" width="318.75" height="451.5" viewBox="0, 0, 425, 602">
  <g id="Ebene_1">
    <path d="M0,0 L425,0 L425,602 L0,602 L0,0 z" fill="#F2F2F2"/>
    <g>
      <path d="M-15.989,-0 L430,-0 L430,7.089 L-15.989,7.089 L-15.989,-0 z" fill="#7A8FA5"/>
      <path d="M-15.989,17.497 L430,17.497 L430,24.587 L-15.989,24.587 L-15.989,17.497 z" fill="#7A8FA5"/>
      <path d="M-15.989,34.995 L327.759,34.995 L327.759,42.084 L-15.989,42.084 L-15.989,34.995 z" fill="#7A8FA5"/>
      <path d="M-15.989,52.492 L430,52.492 L430,59.582 L-15.989,59.582 L-15.989,52.492 z" fill="#7A8FA5"/>
      <path d="M-15.989,367.445 L430,367.445 L430,374.534 L-15.989,374.534 L-15.989,367.445 z" fill="#7A8FA5"/>
      <path d="M-15.989,384.942 L430,384.942 L430,392.032 L-15.989,392.032 L-15.989,384.942 z" fill="#7A8FA5"/>
      <path d="M-15.989,402.44 L327.759,402.44 L327.759,409.529 L-15.989,409.529 L-15.989,402.44 z" fill="#7A8FA5"/>
      <path d="M-15.989,419.937 L430,419.937 L430,427.026 L-15.989,427.026 L-15.989,419.937 z" fill="#7A8FA5"/>
      <path d="M-15.989,69.989 L430,69.989 L430,77.079 L-15.989,77.079 L-15.989,69.989 z" fill="#7A8FA5"/>
      <path d="M-15.989,87.487 L240.876,87.487 L240.876,94.576 L-15.989,94.576 L-15.989,87.487 z" fill="#7A8FA5"/>
      <path d="M-15.989,104.984 L430,104.984 L430,112.074 L-15.989,112.074 L-15.989,104.984 z" fill="#7A8FA5"/>
      <path d="M-15.989,122.482 L430,122.482 L430,129.571 L-15.989,129.571 L-15.989,122.482 z" fill="#7A8FA5"/>
      <path d="M-15.989,139.979 L86.042,139.979 L86.042,147.068 L-15.989,147.068 L-15.989,139.979 z" fill="#7A8FA5"/>
      <path d="M-15.989,157.476 L430,157.476 L430,164.566 L-15.989,164.566 L-15.989,157.476 z" fill="#7A8FA5"/>
      <path d="M-15.989,174.974 L430,174.974 L430,182.063 L-15.989,182.063 L-15.989,174.974 z" fill="#7A8FA5"/>
      <path d="M-15.989,437.434 L430,437.434 L430,444.524 L-15.989,444.524 L-15.989,437.434 z" fill="#7A8FA5"/>
      <path d="M-15.989,454.932 L430,454.932 L430,462.021 L-15.989,462.021 L-15.989,454.932 z" fill="#7A8FA5"/>
      <path d="M-15.989,472.429 L327.759,472.429 L327.759,479.518 L-15.989,479.518 L-15.989,472.429 z" fill="#7A8FA5"/>
      <path d="M-15.989,489.926 L430,489.926 L430,497.016 L-15.989,497.016 L-15.989,489.926 z" fill="#7A8FA5"/>
      <path d="M-15.989,507.424 L430,507.424 L430,514.513 L-15.989,514.513 L-15.989,507.424 z" fill="#7A8FA5"/>
      <path d="M-15.989,524.921 L240.876,524.921 L240.876,532.01 L-15.989,532.01 L-15.989,524.921 z" fill="#7A8FA5"/>
      <path d="M-15.989,542.419 L430,542.419 L430,549.508 L-15.989,549.508 L-15.989,542.419 z" fill="#7A8FA5"/>
      <path d="M-15.989,559.916 L430,559.916 L430,567.005 L-15.989,567.005 L-15.989,559.916 z" fill="#7A8FA5"/>
      <path d="M-15.989,577.413 L86.042,577.413 L86.042,584.503 L-15.989,584.503 L-15.989,577.413 z" fill="#7A8FA5"/>
      <path d="M-15.989,594.911 L430,594.911 L430,602 L-15.989,602 L-15.989,594.911 z" fill="#7A8FA5"/>
      <path d="M-15.989,192.471 L128.116,192.471 L128.116,199.56 L-15.989,199.56 L-15.989,192.471 z" fill="#7A8FA5"/>
      <path d="M-15.989,209.968 L341.644,209.968 L341.644,217.058 L-15.989,217.058 L-15.989,209.968 z" fill="#7A8FA5"/>
      <path d="M-15.989,227.466 L430,227.466 L430,234.555 L-15.989,234.555 L-15.989,227.466 z" fill="#7A8FA5"/>
      <path d="M-15.989,244.963 L430,244.963 L430,252.053 L-15.989,252.053 L-15.989,244.963 z" fill="#7A8FA5"/>
      <path d="M-15.989,262.461 L322.71,262.461 L322.71,269.55 L-15.989,269.55 L-15.989,262.461 z" fill="#7A8FA5"/>
      <path d="M-15.989,279.958 L202.272,279.958 L202.272,287.047 L-15.989,287.047 L-15.989,279.958 z" fill="#7A8FA5"/>
      <path d="M-15.989,297.455 L430,297.455 L430,304.545 L-15.989,304.545 L-15.989,297.455 z" fill="#7A8FA5"/>
      <path d="M-15.989,314.953 L430,314.953 L430,322.042 L-15.989,322.042 L-15.989,314.953 z" fill="#7A8FA5"/>
      <path d="M-15.989,332.45 L430,332.45 L430,339.539 L-15.989,339.539 L-15.989,332.45 z" fill="#7A8FA5"/>
      <path d="M-15.989,349.947 L111.812,349.947 L111.812,357.037 L-15.989,357.037 L-15.989,349.947 z" fill="#7A8FA5"/>
    </g>
  </g>
</svg>
