<?xml version="1.0" encoding="UTF-8"?>
<!DOCTYPE svg PUBLIC "-//W3C//DTD SVG 1.1//EN" "http://www.w3.org/Graphics/SVG/1.1/DTD/svg11.dtd">
<svg version="1.1" xmlns="http://www.w3.org/2000/svg" xmlns:xlink="http://www.w3.org/1999/xlink" x="0" y="0" width="558" height="522" viewBox="0, 0, 558, 522">
  <g id="Ebene_1">
    <g>
      <path d="M27.643,312.021 C32,312.165 36.474,313.538 39.285,317.027 C40.085,318.15 41.387,319.858 42.179,320.823 C43.158,322.017 43.618,324.008 43.618,327.055 C43.618,337.984 33.367,345.28 22.643,341.983 C19.492,341.014 17.308,339.127 15.012,335.39 C12.789,331.771 12.528,324.368 14.478,320.259 C15.941,317.176 20.588,313.64 24.771,312.426 C26.324,312.06 25.374,312.24 27.643,312.021 z M31.492,339.686 C30.504,339.536 29.646,339.957 28.812,340.422 C27.809,341.07 27.916,341.222 29.381,341.232 C30.372,341.238 31.412,340.875 31.691,340.422 C31.879,339.919 31.898,340.172 31.492,339.686 z M26.07,338.104 C24.809,338.104 25.327,338.01 24.494,338.232 C23.928,338.461 24.391,338.647 25.522,338.647 C26.653,338.647 27.116,338.461 26.55,338.232 L26.07,338.104 z M37.139,336.685 L36.669,336.818 C35.244,337.365 34.983,337.955 36.167,337.955 C36.592,337.955 37.167,337.589 37.443,337.141 C37.597,336.716 37.64,336.894 37.139,336.685 z M15.211,325.012 C15.028,325.746 15.061,326.512 15.053,327.262 C15.053,329.297 15.214,330.13 15.41,329.112 C15.606,328.094 15.606,326.429 15.41,325.411 C15.325,325.062 15.417,325.178 15.211,325.012 z" fill="#4F7280"/>
      <path d="M307.413,141.84 L309.836,147.152 C311.794,151.447 312.908,152.482 315.648,152.553 C317.513,152.601 320.112,153.062 321.425,153.576 C323.582,154.422 323.419,154.791 319.725,157.421 C315.819,160.203 315.675,160.595 316.442,166.379 L317.245,172.429 L312.728,169.763 C308.263,167.129 308.158,167.126 303.625,169.437 C301.102,170.723 298.69,171.953 298.263,172.17 C297.836,172.387 298.082,169.967 298.809,166.792 C300.106,161.123 300.055,160.96 296.041,157.818 C291.439,154.216 292.433,152.517 299.161,152.484 C302.534,152.468 303.317,151.779 305.224,147.152 L307.413,141.84 z" fill="#4F7280"/>
      <path d="M227.047,262.619 C231.329,261.294 235.582,259.832 239.95,258.807 C241.752,258.385 243.954,257.81 245.82,258.253 C247.278,258.599 248.393,259.485 249.567,260.363 C251.896,262.09 251.963,262.256 259.735,285.58 C267.501,308.884 267.555,309.086 266.977,312.673 C265.91,319.289 267.507,318.513 228.307,331.474 C209.222,337.785 192.553,343.065 191.264,343.208 C189.976,343.351 187.43,342.707 185.607,341.776 L182.294,340.084 L174.093,315.4 C166.456,292.416 165.927,290.524 166.41,287.91 C167.482,282.104 166.759,282.438 206.48,269.358 C213.33,267.094 220.184,264.843 227.047,262.619 z M245.667,266.294 C245.188,266.681 239.474,276.228 232.968,287.51 C226.462,298.792 220.488,308.334 219.692,308.715 C218.393,309.338 201.073,302.798 177.732,292.873 C175.301,291.839 173.064,291.073 172.762,291.171 C172.46,291.268 175.382,301.053 179.257,312.913 C186.145,334.002 187.189,336.428 189.677,337.132 C190.186,337.276 206.245,332.335 225.363,326.151 L260.124,314.909 L260.703,313.021 C261.542,310.289 247.03,265.193 245.667,266.294 z M201.603,277.23 C194.671,279.49 187.734,281.732 180.825,284.062 C180.061,284.319 178.735,284.771 177.863,285.082 C177.596,285.177 177.044,285.338 176.764,285.514 C176.673,285.693 185.778,289.611 196.998,294.221 L217.398,302.603 L227.837,284.263 C233.578,274.177 238.129,265.849 237.949,265.757 L237.949,265.757 C237.577,265.807 237.153,265.949 236.805,266.049 C233.185,267.098 229.596,268.261 226.003,269.399 C217.859,271.977 209.732,274.606 201.603,277.23 z" fill="#4F7280"/>
      <path d="M60.874,341.818 C64.68,341.822 68.27,342.876 71.705,344.429 C74.482,345.792 77.783,348.258 79.042,349.908 C81.164,352.69 81.684,352.908 86.209,352.908 C95.034,352.908 102.805,358.592 105,366.653 C105.91,369.992 106.338,370.402 109.851,371.286 C115.058,372.597 121.81,379.306 123.234,384.583 C125.325,392.338 122.131,402.151 116.121,406.431 C110.391,410.511 107.62,410.772 71.121,410.677 C52.273,410.627 35.668,410.299 34.222,409.947 C22.122,407.001 15.434,393.456 20.534,382.227 C22.503,377.892 28.637,372.468 32.86,371.328 C35.968,370.489 35.975,370.474 36.069,365.301 C36.767,351.006 47.074,342.506 60.874,341.818 z" fill="#4F7280"/>
      <g>
        <path d="M494.996,378.419 L500.455,383.837 C503.458,386.817 505.914,389.445 505.913,389.677 C505.912,390.115 489.126,396.938 488.085,396.924 C487.761,396.917 488.174,395.201 489.004,393.107 C489.834,391.012 491.522,386.85 492.754,383.858 L494.996,378.419 z" fill="#4F7280"/>
        <path d="M526.26,347.11 L531.994,352.968 L537.728,358.827 L525.084,371.331 L512.441,383.834 L506.801,378.146 L501.162,372.458 L513.711,359.784 L526.26,347.11 z" fill="#4F7280"/>
        <path d="M542.123,343.954 L544.534,345.983 C545.861,347.099 547.276,347.808 547.68,347.559 C549.192,346.624 548.336,348.201 546.208,350.268 C541.673,354.675 541.765,354.664 538.371,351.189 C536.333,349.102 535.69,348.002 536.507,348.002 C537.194,348.002 538.738,347.091 539.939,345.978 L542.123,343.954 z" fill="#4F7280"/>
        <path d="M537.554,337.29 C538.627,337.633 538.976,338.603 539.268,339.596 C540.327,343.818 535.81,346.438 532.201,343.696 C530.931,342.732 531.035,342.416 533.518,339.705 C534.457,338.77 535.458,337.592 536.827,337.304 C537.064,337.254 537.312,337.295 537.554,337.29 z" fill="#4F7280"/>
      </g>
      <path d="M281.251,319.711 C282.477,320.04 283.147,321.017 283.825,322 C284.91,323.72 284.832,326.82 283.548,333.039 C281.249,344.166 282.147,345.225 294.477,345.921 C307.81,346.675 309.049,347.972 308.124,360.22 C307.677,366.139 306.525,370.99 305.224,372.427 C304.037,373.739 303.066,375.477 303.066,376.291 C303.066,381.503 291.045,383.163 279.804,379.501 C269.274,376.071 260.772,375.797 260.772,378.887 C260.772,380.668 259.155,380.992 251.961,380.649 L243.149,380.229 L243.149,347.804 L251.273,347.381 C257.544,347.054 259.585,347.449 260.225,349.117 C262.435,354.877 269.62,344.954 275.469,328.067 C276.51,325.712 277.569,320.993 280.231,319.847 C280.546,319.712 280.911,319.757 281.251,319.711 z" fill="#4F7280"/>
      <path d="M497.439,208.342 C510.68,208.325 520.2,212.069 527.656,220.227 C532.364,225.378 533.997,229.252 533.991,235.249 C533.986,239.922 530.617,246.833 526.388,250.844 C522.899,254.154 515.276,258.637 513.137,258.637 C512.436,258.637 511.344,260.81 510.476,263.932 C509.667,266.844 508.771,269.209 508.487,269.187 C508.202,269.165 506.182,267.381 503.998,265.223 C500.374,261.642 499.641,261.297 495.614,261.279 C486.129,261.235 474.72,257.135 468.231,251.437 C464.69,248.328 461.209,242.106 460.3,237.261 C459.354,232.215 461.868,225.129 466.381,220.126 C473.307,212.447 484.079,208.36 497.44,208.342 z" fill="#4F7280"/>
      <path d="M80.153,425.473 C86.796,425.517 93.453,425.391 100.088,425.832 C103.421,426.053 106.588,426.463 109.617,427.91 C118.235,432.318 118.727,434.656 118.752,471.332 L118.774,504.426 L114.333,509.399 L109.891,514.372 L60.659,514.724 C19.279,515.02 10.764,514.712 7.277,512.792 L7.277,512.792 C4.995,511.536 2.426,509.195 1.567,507.591 C-0.569,503.599 -0.508,438.748 1.637,434.04 C5.168,426.291 6.51,426.088 57.106,425.626 C64.788,425.548 72.471,425.5 80.153,425.473 z M111.161,448.136 L5.991,448.136 L6.162,477.828 L6.333,507.52 L111.161,507.52 L111.161,448.136 z M99.741,432.909 C96.696,432.909 95.935,433.67 95.935,436.716 C95.935,439.761 96.696,440.522 99.741,440.522 C102.787,440.522 103.548,439.761 103.548,436.716 C103.548,433.67 102.787,432.909 99.741,432.909 z M70.26,432.909 C66.434,432.909 65.992,433.372 66.631,436.716 C67.165,439.508 68.326,440.522 70.988,440.522 C73.844,440.522 74.617,439.711 74.617,436.716 C74.617,433.542 73.892,432.909 70.26,432.909 z M85.115,432.909 C81.429,432.909 80.708,433.532 80.708,436.716 C80.708,439.853 81.443,440.522 84.895,440.521 C88.287,440.52 89.124,439.797 89.302,436.714 C89.489,433.481 88.859,432.909 85.115,432.909 z" fill="#4F7280"/>
      <path d="M226.649,99.327 C263.859,99.327 290.935,134.1 281.608,169.909 C273.643,200.491 242.31,219.141 212.405,211.099 C192.323,205.699 176.966,190.162 171.691,169.909 C162.4,134.241 189.586,99.327 226.65,99.327 z M225.989,106.827 C222.82,106.827 217.173,107.721 213.439,108.813 C206.646,110.799 194.775,117.477 194.775,119.312 C194.775,120.759 199.876,122.198 204.15,121.956 C207.154,121.786 208.334,122.518 210.087,125.637 C211.29,127.778 212.275,130.778 212.275,132.304 C212.275,138.712 204.956,140.261 201.591,134.564 C199.781,131.501 198.731,131.039 193.395,130.959 C186.739,130.858 185.793,132.102 189.957,135.474 L192.64,137.647 L188.656,140.484 C185.47,142.752 184.963,143.673 186.126,145.074 C188.139,147.5 189.638,147.272 192.158,144.161 C193.985,141.904 194.736,141.719 197.046,142.955 C200.81,144.97 200.45,147.059 195.889,149.655 C193.343,151.104 192.276,152.494 192.772,153.718 C193.186,154.74 193.851,156.383 194.251,157.368 C195.012,159.243 189.109,163.077 185.462,163.077 C184.396,163.077 183.525,163.677 183.525,164.41 C183.525,167.177 186.198,170.577 188.375,170.577 C189.619,170.577 191.655,171.702 192.9,173.077 C194.144,174.452 196.356,175.577 197.815,175.577 C199.274,175.577 201.792,176.505 203.411,177.638 C206.201,179.593 206.32,180.238 205.706,190.085 L205.058,200.47 L210.854,202.331 C221.25,205.667 225.746,206.04 234.825,204.318 C244.242,202.532 253.667,197.9 260.273,191.811 C265.873,186.648 273.525,173.577 273.525,169.172 C273.525,166.215 268.787,163.565 266.89,165.462 C265.346,167.006 261.025,167.321 261.024,165.89 C261.024,165.374 258.973,163.316 256.466,161.315 C252.231,157.936 251.795,157.832 250.319,159.852 C249.026,161.619 248.236,161.761 246.083,160.609 C243.894,159.437 243.574,158.458 244.234,154.943 L245.031,150.693 L240.215,151.366 C237.567,151.736 233.769,152.553 231.775,153.183 C227.407,154.562 222.269,154.692 224.336,153.371 C225.126,152.866 225.97,151.046 226.211,149.327 C226.587,146.647 227.327,146.183 231.409,146.068 C236.901,145.914 239.212,144.171 238.025,141.077 C237.39,139.425 236.846,139.256 235.734,140.368 C233.47,142.632 231.025,142.092 231.025,139.327 C231.025,137.528 231.858,136.827 233.996,136.827 C235.631,136.827 237.701,135.945 238.596,134.866 C239.853,133.352 241.567,133.089 246.114,133.715 C249.612,134.196 252.32,134.016 252.779,133.272 C253.205,132.582 256.36,131.087 259.789,129.947 C263.219,128.808 266.025,127.476 266.025,126.987 C266.025,125.506 255.698,116.14 250.953,113.316 C245.239,109.917 233.353,106.827 225.989,106.827 z M225.664,158.278 L227.057,158.436 C235.694,159.572 241.535,162.506 243.438,166.667 C244.421,168.818 245.968,170.577 246.875,170.577 C249.057,170.577 248.97,173.261 246.689,176.276 C245.68,177.61 244.836,180.455 244.814,182.596 C244.778,186.174 240.737,193.129 238.746,193.039 C238.281,193.018 236.915,192.428 235.712,191.727 C234.223,190.86 233.525,188.903 233.525,185.597 C233.525,182.925 232.95,179.229 232.248,177.383 C231.154,174.505 230.448,174.13 227.305,174.759 C224.353,175.349 223.141,174.859 221.082,172.241 C218.008,168.333 217.914,166.635 220.495,161.643 C222.187,158.544 222.23,158.334 225.664,158.278 z M182.706,173.077 C180.502,173.077 180.563,173.522 183.572,179.421 C186.191,184.553 188.525,184.963 188.525,180.289 C188.525,177.24 185.166,173.077 182.706,173.077 z" fill="#4F7280"/>
      <path d="M505.454,9.159 L506.03,9.256 C507.059,9.462 509.009,9.631 510.363,9.631 L512.826,9.631 L513.274,13.221 C513.709,16.702 513.836,16.888 517.428,19.328 C520.839,21.644 521.334,21.797 523.664,21.257 C525.055,20.934 526.409,20.663 526.673,20.654 C526.936,20.646 528.223,22.253 529.533,24.225 L531.914,27.811 L529.539,30.242 C527.309,32.526 527.165,32.923 527.165,36.793 C527.165,40.791 527.244,40.985 529.842,43.383 L532.518,45.854 L531.045,49.794 L529.571,53.735 L526.236,53.318 C522.955,52.908 522.847,52.95 519.529,55.933 C516.351,58.79 516.157,59.145 516.157,62.083 L516.157,65.201 L512.146,66.556 C509.94,67.301 507.958,67.911 507.742,67.911 C507.526,67.911 506.734,66.644 505.981,65.095 C504.616,62.284 504.607,62.279 499.988,61.654 C495.472,61.043 495.304,61.072 492.855,62.873 L490.346,64.717 L486.901,62.639 C485.006,61.495 483.327,60.459 483.171,60.335 C483.014,60.212 483.409,58.657 484.048,56.88 L485.21,53.648 L483.014,49.948 C481.083,46.693 480.456,46.145 477.802,45.396 C474.853,44.563 474.775,44.474 474.39,41.495 C474.172,39.819 473.87,37.832 473.717,37.081 C473.48,35.915 473.922,35.582 476.731,34.814 C479.907,33.946 480.081,33.776 481.636,30.029 C483.215,26.224 483.226,26.078 482.176,23.023 C480.982,19.549 481.013,19.468 484.984,15.646 L487.16,13.552 L489.914,15.447 L492.668,17.341 L497.051,15.916 C501.073,14.609 501.548,14.259 502.798,11.687 C503.278,10.875 503.586,9.562 504.587,9.204 C504.86,9.107 505.165,9.174 505.454,9.159 z M502.459,26.618 C500.379,26.768 498.548,27.574 496.787,28.619 C493.471,30.813 492.022,33.6 491.799,38.215 C491.447,45.467 497.081,50.747 504.653,50.26 C507.605,50.071 508.86,49.622 510.776,48.071 C516.164,43.711 517.42,37.286 513.882,32.191 C511.734,29.184 508.521,27.05 504.801,26.644 C504.024,26.559 503.239,26.627 502.459,26.618 z M508.622,46.118 C508.794,46.301 508.727,46.199 508.828,46.42 C509.016,46.887 508.992,47.446 508.777,47.661 C508.562,47.876 508.409,47.494 508.437,46.811 L508.437,46.811 C508.478,46.511 508.387,46.352 508.622,46.118 z M496.329,30.016 C496.491,30.078 496.427,30.024 496.511,30.19 C496.691,30.636 496.691,31.364 496.511,31.809 C496.332,32.255 496.185,31.89 496.185,31 C496.188,30.604 496.178,30.391 496.329,30.016 z" fill="#4F7280"/>
      <path d="M378.326,0.077 C459.363,0.077 462.901,0.128 463.966,1.312 C464.983,2.441 465.078,7.551 465.078,60.925 C465.078,112.668 464.959,119.473 464.032,120.803 L462.987,122.304 L399.252,122.304 L399.252,126.277 C399.252,129.677 399.445,130.301 400.59,130.602 C401.326,130.795 402.459,131.921 403.109,133.103 C403.758,134.285 406.058,138.126 408.22,141.639 C412.611,148.774 413.539,152.296 411.75,155.041 L410.64,156.744 L376.231,156.69 C357.306,156.661 341.445,156.484 340.983,156.297 C340.448,156.08 340.143,154.55 340.143,152.084 C340.143,149 340.828,146.509 343.505,139.854 C345.354,135.257 347.243,131.256 347.703,130.962 C348.163,130.669 349.371,130.424 350.386,130.418 C352.195,130.408 352.234,130.323 352.234,126.356 L352.234,122.304 L323.385,122.347 C305.113,122.374 294.071,122.138 293.266,121.705 C292.123,121.09 291.951,119.85 291.554,109.339 C291.312,102.913 291.113,76.309 291.112,50.217 C291.109,3.677 291.135,2.753 292.453,1.428 C293.782,0.091 294.692,0.077 378.326,0.077 z M384.254,11.462 C363.547,11.495 342.838,11.475 322.133,11.835 C318.622,11.896 315.111,11.963 311.602,12.093 C310.832,12.121 307.459,12.148 306.636,12.476 C306.085,13.144 305.925,25.936 306.05,59.24 L306.223,105.084 L332.083,105.422 C367.823,105.889 449.164,105.484 449.808,104.837 C450.099,104.544 450.328,83.817 450.316,58.775 C450.296,16.869 450.204,13.178 449.162,12.401 C448.298,12.169 447.218,12.165 446.358,12.121 C443.388,11.971 440.412,11.912 437.439,11.851 C432.877,11.758 428.315,11.7 423.752,11.652 C410.587,11.514 397.421,11.486 384.254,11.462 z" fill="#4F7280"/>
      <path d="M397.208,167.046 C406.311,167.1 415.421,166.978 424.519,167.362 C429.761,167.583 436.024,167.517 440.578,170.492 C441.863,171.331 442.645,172.213 443.656,173.257 L447.115,176.964 L446.625,318.481 L444.34,320.959 C443.084,322.322 440.411,324.196 438.401,325.124 C435.018,326.686 431.624,326.812 392.68,326.831 C350.838,326.851 350.592,326.84 346.59,324.795 L346.59,324.795 C344.377,323.664 341.72,321.578 340.686,320.16 C338.831,317.617 338.802,316.6 338.56,247.907 L338.315,178.233 L340.387,175.188 C343.451,170.687 346.435,168.851 352.222,167.91 C355.073,167.445 373.594,167.057 393.379,167.047 L397.208,167.046 z M435.203,185.223 L350.226,185.223 L350.226,304.921 L435.203,304.921 L435.203,185.223 z M373.983,222.679 L395.913,233.651 C407.974,239.685 417.842,244.825 417.842,245.072 C417.842,245.32 407.974,250.459 395.913,256.494 L373.983,267.466 L373.983,222.679 z" fill="#4F7280"/>
      <g>
        <path d="M491.458,73.409 C496.497,74.404 501.532,75.418 506.567,76.437 L529.666,81.119 L539.498,96.057 L549.331,110.994 L546.241,126.486 C544.542,135.007 542.302,142.857 541.264,143.93 C539.987,145.249 540.54,139.956 542.968,127.604 L546.56,109.327 L536.417,107.32 C530.838,106.216 525.753,104.535 525.116,103.585 C524.48,102.634 515.622,99.986 505.433,97.7 L486.906,93.544 L525.071,100.425 L528.613,82.525 L480.88,73.081 L471.878,118.576 C464.887,153.908 463.287,164.183 464.715,164.57 C471.822,166.498 498.17,171.704 497.771,171.102 C497.499,170.691 498.678,169.312 500.39,168.038 C503.075,166.039 503.241,165.472 501.597,163.912 C500.181,162.568 500.194,162.197 501.649,162.467 C502.745,162.67 503.288,161.98 502.882,160.898 C502.43,159.691 502.734,159.5 503.691,160.39 C504.535,161.174 504.715,162.363 504.091,163.034 C503.456,163.718 505.935,164.841 509.742,165.595 L516.525,166.937 L517.424,160.527 C518.044,156.106 517.64,153.917 516.125,153.473 C514.916,153.119 505.579,150.953 495.376,148.66 L476.826,144.49 L497.869,147.812 C514.192,150.388 519.003,150.679 519.313,149.108 C519.634,147.49 515.611,146.319 499.29,143.282 C486.426,140.888 478.622,138.832 478.209,137.728 C477.767,136.548 482.866,137.026 493.815,139.193 C502.759,140.962 518.324,143.586 528.404,145.023 L546.73,147.636 L541.917,171.961 L548.63,173.289 C552.322,174.02 555.239,175.138 555.113,175.774 C554.988,176.409 548.861,180.934 541.498,185.829 C534.136,190.723 528.039,195.098 527.95,195.55 C527.97,195.654 527.944,195.619 528.005,195.669 L527.886,195.86 C527.599,196.148 524.597,197.308 524.01,197.613 C523.258,198.004 522.792,198.575 522.203,199.104 C521.71,199.533 521.129,199.842 520.561,200.157 C521.324,195.707 519.448,191.641 517.074,188.001 L512.797,181.775 L486.8,176.206 L460.802,170.636 L470.223,120.961 C477.652,81.784 480.049,71.336 481.556,71.52 C484.867,72.088 488.161,72.76 491.458,73.409 z M464.632,166.49 C464.11,166.507 463.932,166.813 463.795,167.261 C463.623,168.13 464.154,168.974 464.974,169.136 C465.794,169.299 466.524,169.135 466.596,168.774 C466.667,168.412 466.137,167.568 465.417,166.899 C465.003,166.573 465.254,166.727 464.632,166.49 z M480.105,170.46 C477.01,169.887 473.92,169.228 470.787,168.882 C470.18,168.815 469.24,168.654 468.61,168.858 C467.977,169.282 474.061,170.934 482.128,172.53 C490.195,174.126 496.563,175.085 496.278,174.66 L496.278,174.659 C495.249,173.955 493.867,173.671 492.684,173.345 C491.488,173.014 489.817,172.594 488.629,172.315 C484.729,171.399 484.446,171.371 480.105,170.46 z M503.143,168.163 L505.947,172.981 C508.569,177.483 509.588,178.674 509.82,177.505 C509.872,177.237 508.392,175.026 506.529,172.591 L503.143,168.163 z M500.6,169.985 L500.6,169.985 C500.055,169.877 499.361,171.051 499.055,172.594 C498.561,175.09 499.14,175.429 503.839,175.395 L503.839,175.394 C504.784,175.388 501.676,170.198 500.6,169.985 z M543.891,150.65 L523.675,146.65 L521.933,156.768 C520.925,162.63 520.889,164.64 521.848,161.545 C523.483,156.275 523.603,156.217 530.983,157.153 C538.998,158.169 539.691,159.383 535.447,164.969 C533.512,167.516 533.707,167.496 536.894,164.823 C538.921,163.123 541.324,159.239 542.235,156.192 L543.891,150.65 z M530.443,85.815 C530.304,85.842 530.132,85.801 530.026,85.894 C529.391,86.451 528.911,89.063 528.772,89.695 C528.492,90.965 528.157,92.669 527.891,94.007 L525.972,103.703 L544.493,107.368 L539.215,99.12 C536.312,94.584 533.008,89.396 531.873,87.592 C531.489,86.91 531.042,86.315 530.443,85.815 z" fill="#4F7280"/>
        <path d="M468.88,161.285 C469.54,161.486 469.919,161.905 470.21,162.5 C471.142,164.988 469.897,165.557 467.796,163.604 C466.67,162.558 466.67,161.759 467.795,161.338 C468.391,161.184 468.033,161.237 468.88,161.285 z" fill="#4F7280"/>
        <path d="M504.475,133.551 C520.444,136.711 529.811,139.141 529.626,140.077 C529.441,141.011 520.161,139.755 504.806,136.717 C490.066,133.8 480.032,131.196 479.655,130.19 C479.247,129.099 487.891,130.269 504.475,133.551 z" fill="#4F7280"/>
        <path d="M506.784,126.258 C522.198,129.308 531.286,131.685 531.101,132.619 C530.917,133.553 521.608,132.291 506.194,129.241 C490.78,126.191 481.692,123.814 481.877,122.879 C482.062,121.945 491.371,123.208 506.784,126.258 z" fill="#4F7280"/>
        <path d="M508.26,118.799 C523.674,121.849 532.762,124.227 532.577,125.161 C532.392,126.095 523.083,124.833 507.67,121.783 C492.256,118.733 483.168,116.355 483.353,115.421 C483.538,114.487 492.846,115.75 508.26,118.799 z" fill="#4F7280"/>
        <path d="M512.125,112.465 C518.485,113.787 524.881,115.018 531.134,116.799 C531.279,116.841 533.878,117.526 534.001,117.962 C533.867,118.64 522.682,117.003 509.145,114.324 C495.609,111.646 484.636,108.952 484.761,108.337 C484.888,107.723 496.072,109.359 509.617,111.974 L512.125,112.465 z" fill="#4F7280"/>
        <path d="M508.068,105.006 C513.388,106.02 518.695,107.108 523.965,108.355 C530.639,109.962 524.688,109.017 510.742,106.256 C496.795,103.495 491.335,102.18 498.608,103.334 L498.608,103.334 C501.772,103.828 504.919,104.427 508.068,105.006 z" fill="#4F7280"/>
      </g>
      <g>
        <path d="M396.887,511.22 C399.964,511.276 403.05,511.38 406.103,511.795 C407.292,511.957 409.543,512.159 410.463,513.088 C411.975,515.534 397.505,515.534 385.885,513.088 C379.859,511.82 381.394,511.459 393.773,511.233 L396.887,511.22 z" fill="#4F7280"/>
        <path d="M444.481,510.984 C452.748,510.941 450.95,512.174 440.385,513.794 C434.563,514.687 432.858,514.453 435.042,513.061 C436.805,511.936 441.053,511.002 444.481,510.984 z" fill="#4F7280"/>
        <path d="M393.365,353.862 L412.066,371.882 L430.767,389.901 L430.767,409.818 C430.767,420.773 430.04,429.735 429.151,429.735 C428.263,429.735 427.541,420.839 427.548,409.966 L427.56,390.196 L413.668,389.629 C406.027,389.318 397.852,388.119 395.501,386.966 C393.15,385.812 379.686,384.591 365.58,384.252 L339.933,383.635 L367.183,383.175 L394.434,382.715 L394.434,356.96 L327.11,358.137 L326.826,407.294 C326.67,434.33 327.151,463.664 327.895,472.48 L329.247,488.51 L355.151,488.51 C377.176,488.51 380.913,488.03 380.103,485.304 C379.489,483.24 380.01,483.436 381.564,485.855 C382.892,487.922 383.488,490.406 382.888,491.377 C382.289,492.347 383.212,493.141 384.941,493.141 C387.224,493.141 387.637,491.922 386.45,488.688 C385.551,486.239 384.862,478.166 384.919,470.749 L385.023,457.262 L363.007,457.925 C350.899,458.29 341.276,457.744 341.623,456.711 C341.97,455.679 352.489,455.01 365,455.225 C385.004,455.568 387.996,455.149 389.818,451.746 C391.77,448.097 390.49,447.921 367.308,448.646 C351.243,449.148 341.911,448.598 340.369,447.055 C338.648,445.335 345.844,444.696 366.959,444.696 C391.814,444.696 396.388,444.167 399.299,440.956 C402.516,437.407 401.11,437.251 371.846,437.908 C353.353,438.323 341.002,437.788 341.002,436.574 C341.002,435.396 359.561,434.117 385.35,433.518 C432.836,432.416 439.108,433.36 449.642,443.195 C457.804,450.816 461.116,459.389 461.116,472.894 C461.116,482.911 459.969,487.251 455.557,493.917 C446.623,507.418 428.177,514.764 413.669,510.599 L413.669,510.599 C409.555,509.418 403.16,506.154 399.458,503.345 C393.11,498.529 390.796,498.205 358.85,497.649 L324.973,497.059 L324.973,356 L359.169,354.931 L393.365,353.862 z M423.529,467.512 C421.089,467.513 418.909,468.483 416.761,469.514 C408.694,473.699 407.101,475.525 413.135,473.671 C415.78,472.858 417.933,472.498 417.92,472.871 C417.909,473.244 416.467,478.262 414.72,484.023 C412.324,491.921 412.141,495.218 413.976,497.429 C416.717,500.731 423.647,499.382 428.63,494.577 C431.467,491.84 431.406,491.647 428.096,492.898 C426.038,493.675 424.367,493.967 424.381,493.547 C424.395,493.128 425.753,487.724 427.4,481.539 C430.146,471.223 430.086,470.129 426.668,468.3 C425.019,467.582 426.039,467.932 423.529,467.512 z M357.439,491.977 C351.781,491.917 346.119,491.981 340.468,492.271 C333.121,492.688 339.132,493.03 353.826,493.03 C368.519,493.03 374.53,492.688 367.184,492.271 C363.939,492.075 360.688,492.042 357.439,491.977 z M426.121,447.447 C423.554,447.677 424.602,447.335 422.886,448.131 C418.022,451.102 416.806,456.779 420.166,460.828 C423.781,465.184 430.211,464.689 432.798,459.855 C434.74,455.568 432.395,450.247 428.274,448.144 C427.602,447.802 426.839,447.68 426.121,447.447 z M397.64,359.41 L396.984,370.274 C396.017,386.287 396.64,386.99 411.792,386.99 L425.01,386.99 L411.325,373.2 L397.64,359.41 z" fill="#4F7280"/>
        <path d="M376.267,423.323 C398.352,423.323 411.532,424.122 411.532,425.461 C411.532,426.799 398.352,427.598 376.267,427.598 C354.182,427.598 341.002,426.799 341.002,425.461 C341.002,424.122 354.182,423.323 376.267,423.323 z" fill="#4F7280"/>
        <path d="M376.267,412.637 C398.352,412.637 411.532,413.436 411.532,414.774 C411.532,416.113 398.352,416.912 376.267,416.912 C354.182,416.912 341.002,416.113 341.002,414.774 C341.002,413.436 354.182,412.637 376.267,412.637 z" fill="#4F7280"/>
        <path d="M383.549,403.454 C391.377,403.48 399.215,403.4 407.035,403.822 C407.216,403.831 411.222,403.969 411.532,404.483 C411.532,405.441 395.502,406.225 375.911,406.225 C356.319,406.225 340.743,405.772 341.297,405.218 C342.786,404.584 344.962,404.565 346.509,404.455 C347.883,404.358 349.258,404.274 350.634,404.202 C353.793,404.038 358.183,403.878 361.293,403.797 C371.522,403.529 372.228,403.572 383.549,403.454 z" fill="#4F7280"/>
        <path d="M372.239,393.671 C379.851,393.618 387.465,393.67 395.073,393.951 C404.713,394.346 396.25,394.667 376.267,394.665 C356.284,394.663 348.396,394.339 358.74,393.947 L358.74,393.946 C363.237,393.764 367.739,393.731 372.239,393.671 z" fill="#4F7280"/>
      </g>
      <path d="M48.82,102.518 C52.96,102.145 55.219,104.054 57.798,106.996 C61.889,112.048 65.154,112.743 84.797,112.743 L107.143,112.743 L151.118,156.948 L151.118,221.287 C151.118,280.266 150.702,286.105 146.128,291.379 C141.284,296.964 139.297,297.133 78.429,297.133 C43.94,297.133 14.919,296.331 13.939,295.351 C12.959,294.371 12.158,254.874 12.158,207.579 C12.158,123.833 12.303,121.457 17.725,116.55 C21.169,113.433 26.266,111.823 31.087,112.328 C36.709,112.918 38.881,111.987 38.881,108.987 C38.881,106.699 42.09,104.022 46.012,103.038 C47.601,102.67 46.669,102.862 48.82,102.518 z M76.189,286.775 C67.983,286.702 59.774,286.779 51.574,287.132 C40.918,287.639 49.637,288.054 70.949,288.054 C92.26,288.054 100.979,287.639 90.323,287.132 C85.615,286.893 80.901,286.853 76.189,286.775 z M51.315,106.188 C49.368,106.358 47.601,107.137 45.878,107.997 C40.261,111.056 40.269,111.094 46.898,112.981 C51.48,114.285 48.332,114.966 36.876,115.149 L20.174,115.415 L20.174,192.694 C20.175,235.197 20.904,271.875 21.797,274.2 C23.199,277.854 30.467,278.427 75.419,278.427 C107.573,278.427 129.479,277.324 132.816,275.538 C135.785,273.949 138.887,273.322 139.709,274.144 C140.532,274.967 138.324,276.893 134.804,278.426 C128.489,281.176 128.502,281.199 135.752,280.19 C139.794,279.628 143.101,280.203 143.101,281.469 C143.101,282.735 141.898,283.771 140.429,283.771 C138.959,283.771 137.756,284.936 137.756,286.36 C137.756,287.783 139.56,288.256 141.765,287.41 C145.149,286.111 145.825,276.546 146.107,226.031 C146.291,193.118 146.592,164.085 146.775,161.513 C147.059,157.545 144.292,156.715 128.515,156.033 C118.288,155.592 108.667,154.221 107.136,152.988 C105.605,151.755 94.579,150.586 82.633,150.392 C63.025,150.072 60.778,150.555 59.52,155.365 C58.188,160.459 59.674,160.73 93.265,161.522 C125.019,162.27 124.028,162.376 82.974,162.623 C57.988,162.774 39.52,162.372 41.934,161.73 C46.861,160.421 45.661,150.183 40.573,150.115 C38.445,150.086 38.49,149.473 40.724,148.052 C42.473,146.94 44.355,139.443 44.906,131.391 L45.909,116.752 L46.403,132.117 C46.778,143.775 47.865,147.483 50.906,147.483 C54.105,147.483 54.915,143.524 54.915,127.886 C54.915,117.108 54.155,107.53 53.227,106.602 C52.355,106.072 52.949,106.342 51.315,106.188 z M96.562,237.636 C105.163,237.715 113.801,237.542 122.375,238.383 C122.816,238.426 126.776,238.711 127.07,239.678 C127.068,242.733 39.085,243.507 37.207,240.469 C36.568,239.434 56.526,238.231 81.559,237.796 C90.096,237.666 85.096,237.73 96.562,237.636 z M81.48,224.98 C110.09,224.98 127.067,225.975 127.067,227.653 C127.067,229.326 110.64,230.325 83.132,230.325 C56.724,230.325 38.537,229.259 37.545,227.653 C36.468,225.911 51.769,224.98 81.48,224.98 z M82.974,211.619 C110.588,211.619 127.067,212.617 127.067,214.291 C127.067,215.965 110.588,216.963 82.974,216.963 C55.36,216.963 38.881,215.965 38.881,214.291 C38.881,212.617 55.36,211.619 82.974,211.619 z M82.974,198.257 C110.588,198.257 127.067,199.256 127.067,200.929 C127.067,202.603 110.588,203.602 82.974,203.602 C55.36,203.602 38.881,202.603 38.881,200.929 C38.881,199.256 55.36,198.257 82.974,198.257 z M82.974,184.896 C110.588,184.896 127.067,185.894 127.067,187.568 C127.067,189.241 110.588,190.24 82.974,190.24 C55.36,190.24 38.881,189.241 38.881,187.568 C38.881,185.894 55.36,184.896 82.974,184.896 z M87.481,172.6 C98.895,172.701 110.341,172.627 121.726,173.575 C122.001,173.598 126.705,173.896 127.066,174.619 C127.066,175.862 107.224,176.879 82.973,176.879 C58.722,176.879 38.888,175.977 38.897,174.874 L38.899,174.874 C38.91,173.772 58.75,172.755 82.992,172.615 L87.481,172.6 z M99.298,281.437 C96.739,281.315 94.186,281.488 91.659,281.885 C88.352,282.522 91.058,283.043 97.672,283.043 C104.286,283.043 106.992,282.522 103.685,281.885 C101.345,281.518 102.802,281.711 99.298,281.437 z M40.675,281.418 C33.475,281.653 36.494,281.488 31.613,281.804 C24.587,282.356 29.661,282.815 42.889,282.823 C56.117,282.831 61.866,282.379 55.664,281.819 L55.663,281.818 C50.681,281.355 45.671,281.421 40.675,281.418 z M16.481,152.627 C16.32,153.229 16.393,152.885 16.348,154.023 C16.236,156.862 16.216,159.707 16.184,162.547 C16.148,165.686 16.122,169.143 16.103,172.265 C16.037,183.156 16.025,194.047 16.022,204.938 C16.021,251.971 16.384,271.588 16.828,248.531 C17.273,225.475 17.274,186.994 16.83,163.017 C16.775,160.298 16.731,157.578 16.629,154.86 C16.571,153.314 16.6,153.698 16.481,152.627 z M50.906,150.155 C46.733,150.155 45.604,153.316 48.679,156.391 C51.754,159.466 54.915,158.337 54.915,154.164 C54.915,151.959 53.111,150.155 50.906,150.155 z M110.547,122.773 C110.288,122.877 109.986,122.909 109.771,123.086 C108.466,124.156 108.491,127.585 108.432,129.038 C108.333,131.512 108.361,133.991 108.361,136.467 L108.361,152.828 L142.8,152.828 L130.257,140.079 C125.645,135.514 121.258,130.701 116.405,126.385 C114.673,124.845 112.895,123.16 110.547,122.773 z M105.689,115.415 L60.259,115.415 L60.259,147.483 L105.689,147.483 L105.689,115.415 z" fill="#4F7280"/>
      <path d="M136.53,308.686 C137.027,308.745 136.937,308.595 137.028,308.849 C136.977,309.028 139.114,311.367 141.778,314.047 C144.454,316.74 146.62,319.277 146.62,319.718 C146.62,320.73 113.615,354.062 112.613,354.062 C112.214,354.062 111.541,353.679 111.118,353.212 L111.118,353.212 C110.694,352.744 110.15,352.483 109.908,352.632 C109.667,352.782 109.587,352.714 109.73,352.481 C110.076,351.922 105.141,347.054 104.666,347.486 C104.464,347.67 104.417,347.612 104.562,347.357 C104.893,346.775 99.99,341.865 99.534,342.321 C99.35,342.505 99.264,342.437 99.343,342.17 C99.558,341.441 92.886,334.597 92.308,334.954 C92.011,335.138 91.939,335.064 92.124,334.764 C92.292,334.493 91.934,333.739 91.33,333.088 C89.929,331.577 89.95,331.157 91.498,329.696 C92.194,329.039 92.648,328.315 92.507,328.087 C92.366,327.859 92.446,327.793 92.685,327.94 C92.924,328.088 94.807,326.46 96.871,324.322 C98.935,322.185 100.904,320.496 101.248,320.569 C101.592,320.643 104.289,323.118 107.242,326.069 L112.611,331.435 L114.73,329.348 C115.895,328.2 116.8,327.045 116.74,326.78 C116.679,326.515 116.717,326.462 116.824,326.661 C116.93,326.86 117.762,326.296 118.672,325.407 C119.583,324.518 120.207,323.581 120.061,323.323 C119.914,323.066 119.959,323.004 120.159,323.186 C120.604,323.591 123.783,320.575 123.628,319.895 C123.567,319.629 123.606,319.579 123.714,319.784 C123.823,319.988 126.454,317.639 129.562,314.564 C132.67,311.488 135.643,308.871 136.167,308.747 L136.53,308.686 z" fill="#4F7280"/>
      <g>
        <path d="M157.328,352.175 C161.895,352.194 166.446,352.703 170.985,353.156 C172.697,353.328 176.619,353.688 179.701,353.954 C182.783,354.22 185.864,354.543 186.549,354.673 L187.794,354.908 L187.693,356.832 C187.543,359.704 188.189,365.333 189.093,369.033 C189.848,372.122 192.603,378.602 192.994,378.211 C193.089,378.116 193.26,378.412 193.375,378.868 C193.56,379.604 194.807,381.43 195.993,382.701 C196.352,383.086 196.45,383.087 196.689,382.709 C196.892,382.388 196.969,382.501 196.972,383.125 C196.976,383.923 197.381,384.279 197.678,383.748 C197.75,383.619 197.766,383.689 197.714,383.903 C197.514,384.723 197.961,385.225 198.721,385.035 C199.162,384.924 199.467,384.984 199.467,385.183 C199.467,385.367 199.222,385.441 198.922,385.347 C198.603,385.247 198.751,385.496 199.281,385.951 C199.778,386.378 200.372,386.654 200.602,386.566 C200.831,386.479 201.117,386.666 201.237,386.984 C201.527,387.751 201.902,388.101 203.202,388.823 C203.801,389.156 204.362,389.516 204.447,389.623 C204.807,390.071 210.7,392.061 212.701,392.409 C214.139,392.66 216.526,392.726 219.776,392.605 L224.68,392.422 L224.675,393.415 C224.672,393.962 224.251,398.751 223.739,404.058 C223.226,409.365 222.386,418.19 221.87,423.668 C221.355,429.147 220.802,434.96 220.642,436.586 C220.481,438.213 220.14,441.728 219.883,444.398 C219.522,448.155 219.213,449.812 218.515,451.724 C216.244,457.946 212.159,461.953 205.529,464.465 C202.612,465.57 197.898,465.708 190.44,464.907 L190.44,464.908 C187.444,464.586 179.74,463.828 173.32,463.222 C166.9,462.617 158.706,461.842 155.11,461.499 C151.515,461.157 147.733,460.659 146.706,460.393 C140.945,458.899 136.091,454.962 133.364,449.571 C131.25,445.39 130.87,441.459 131.742,432.765 C131.986,430.33 132.274,427.217 132.381,425.848 C132.488,424.478 132.702,422.237 132.856,420.867 C133.131,418.42 133.625,413.338 133.945,409.662 C134.035,408.634 134.742,401.21 135.517,393.164 C136.291,385.118 137.053,377.063 137.208,375.266 C137.675,369.859 138.106,367.531 139.097,365.056 C141.899,358.059 148.414,353.095 155.889,352.263 C156.657,352.191 156.178,352.229 157.328,352.175 z M157.709,353.424 C156.092,353.534 156.799,353.462 155.587,353.607 C150.082,354.311 145.143,357.36 142.147,361.901 C139.216,366.345 139.339,365.722 137.354,386.16 C137.097,388.814 136.677,393.296 136.422,396.121 C136.167,398.946 135.818,402.658 135.647,404.37 C135.476,406.082 135.203,409.023 135.041,410.907 C134.766,414.108 134.209,420.006 132.985,432.696 C132.397,438.787 132.509,444.298 133.253,445.941 C133.52,446.532 133.838,447.365 133.96,447.793 C134.081,448.221 134.443,448.943 134.763,449.397 C135.083,449.851 135.344,450.319 135.344,450.435 C135.344,450.72 138.182,454.388 138.768,454.861 C139.025,455.068 139.516,455.164 139.858,455.075 C140.37,454.94 140.397,454.971 140.014,455.249 C139.517,455.608 139.439,455.526 141.414,456.722 C144.486,458.581 147.512,459.501 151.9,459.912 C153.837,460.093 156.892,460.386 158.69,460.564 C160.488,460.742 164.13,461.088 166.783,461.334 C169.437,461.579 174.479,462.068 177.989,462.42 C181.499,462.773 186.751,463.271 189.662,463.527 C192.572,463.784 195.094,464.059 195.265,464.138 C195.436,464.217 197.257,464.23 199.311,464.167 C202.581,464.067 203.377,463.929 205.692,463.063 L205.692,463.063 C210.147,461.398 213.734,458.389 215.953,454.458 C218.168,450.533 218.245,450.067 220.154,428.961 C220.758,422.284 221.477,414.468 221.751,411.591 C222.025,408.715 222.271,405.178 222.297,403.732 C222.324,402.285 222.451,401.102 222.579,401.102 C222.707,401.102 222.813,400.541 222.813,399.856 C222.813,398.611 222.813,398.611 221.567,398.611 C220.668,398.611 220.322,398.482 220.322,398.144 C220.322,397.807 219.976,397.677 219.077,397.677 C217.992,397.677 217.832,397.587 217.832,396.974 C217.832,396.587 217.552,396.096 217.21,395.882 C216.166,395.23 216.502,394.912 218.377,394.776 C219.361,394.705 218.696,394.674 216.898,394.707 C215.101,394.741 213.14,394.671 212.54,394.552 C211.591,394.363 211.692,394.327 213.319,394.269 L215.186,394.203 L212.074,393.631 C207.247,392.745 202.331,390.553 199.052,387.824 C198.566,387.42 198.019,387.183 197.836,387.296 C197.647,387.413 197.593,387.356 197.712,387.164 C197.826,386.979 197.136,386.086 196.178,385.179 C194.421,383.518 191.584,379.481 190.393,376.948 C190.039,376.194 189.626,375.577 189.475,375.577 C189.098,375.577 180.33,374.712 176.9,374.337 C175.359,374.168 172.277,373.881 170.052,373.697 C164.595,373.248 164.567,373.241 164.887,372.383 C165.049,371.95 165.369,371.715 165.732,371.762 C166.053,371.804 168.768,372.049 171.764,372.308 C174.76,372.567 179.778,373 182.916,373.272 C186.053,373.543 188.681,373.705 188.754,373.631 C188.828,373.558 188.548,372.426 188.132,371.116 C187.716,369.806 187.219,367.724 187.028,366.488 C186.597,363.715 186.247,363.234 186.506,365.772 C186.697,367.644 186.377,367.477 185.91,365.461 C185.791,364.947 185.63,364.702 185.551,364.916 C185.462,365.159 184.863,365.291 183.955,365.268 C182.749,365.238 182.658,365.198 183.414,365.035 C184.274,364.849 184.296,364.808 183.794,364.307 C183.502,364.014 183.057,363.854 182.805,363.951 C182.294,364.147 182.17,363.583 182.658,363.282 C182.829,363.176 182.969,362.817 182.969,362.485 C182.969,362.153 183.11,361.881 183.281,361.881 C183.452,361.881 183.592,361.68 183.592,361.435 C183.592,361.19 183.872,360.9 184.215,360.792 C184.953,360.557 185.046,360.013 184.348,360.013 C183.789,360.013 182.969,360.74 182.969,361.236 C182.969,361.42 182.723,361.57 182.422,361.57 C182.12,361.57 181.478,361.936 180.995,362.384 C180.348,362.984 180.025,363.107 179.769,362.851 C179.512,362.595 179.519,362.504 179.794,362.504 C180.023,362.504 180.168,362.019 180.168,361.258 C180.168,360.455 180.027,360.013 179.77,360.013 C179.551,360.013 179.133,359.733 178.839,359.391 C178.546,359.048 178.096,358.768 177.839,358.768 C177.582,358.768 177.197,358.488 176.983,358.146 C176.769,357.803 176.348,357.523 176.046,357.523 C175.706,357.523 175.499,357.287 175.499,356.901 C175.499,356.382 175.291,356.278 174.254,356.278 C173.23,356.278 173.009,356.171 173.009,355.675 C173.009,355.258 173.273,355.03 173.865,354.935 C174.335,354.859 173.67,354.841 172.386,354.894 C170.958,354.953 170.354,354.897 170.83,354.749 C171.411,354.568 170.978,354.454 169.118,354.297 C167.748,354.181 165.157,353.953 163.359,353.79 C161.479,353.602 159.599,353.45 157.709,353.424 z M155.073,445.604 C155.622,445.618 156.169,445.665 156.717,445.707 C158.059,445.809 161.328,446.111 163.982,446.378 C166.635,446.645 171.818,447.149 175.499,447.498 C182.613,448.173 195.714,449.435 201.646,450.018 C203.615,450.211 205.335,450.466 205.469,450.585 C205.603,450.704 205.623,451.035 205.514,451.32 C205.292,451.897 204.396,451.933 201.023,451.5 C199.911,451.357 192.837,450.671 185.304,449.977 C151.504,446.86 154.517,447.221 154.382,446.268 C154.264,445.612 154.526,445.623 155.073,445.604 z M145.079,444.725 C145.752,444.75 146.424,444.806 147.095,444.858 C148.764,444.988 150.375,445.08 150.675,445.062 C151.077,445.038 151.219,445.269 151.219,445.944 C151.219,446.447 151.114,446.84 150.986,446.817 C150.858,446.793 149.422,446.651 147.795,446.501 C144.217,446.17 144.06,446.119 144.06,445.283 C144.046,444.617 144.595,444.727 145.079,444.725 z M155.603,438.512 C159.079,438.652 162.543,439.068 166.005,439.404 C169.429,439.736 178.114,440.569 185.304,441.256 C208.066,443.428 206.145,443.178 206.259,443.98 C206.381,444.837 206.748,444.841 197.132,443.896 L197.132,443.896 C189.504,443.146 181.059,442.341 175.966,441.877 C169.867,441.321 162.523,440.63 158.768,440.259 C155.049,439.892 154.955,439.864 154.955,439.132 C154.905,438.545 155.029,438.593 155.603,438.512 z M145.551,437.521 C146.119,437.536 146.685,437.585 147.251,437.628 C148.663,437.738 150.274,437.829 150.83,437.83 C151.746,437.833 151.842,437.92 151.842,438.766 C151.842,439.279 151.737,439.68 151.609,439.657 C151.48,439.634 150.044,439.492 148.418,439.342 C144.83,439.01 144.683,438.961 144.683,438.107 C144.665,437.475 145.061,437.532 145.551,437.521 z M156.9,431.489 L157.325,431.496 C159.842,431.571 177.826,433.216 185.615,434.083 C187.156,434.255 190.868,434.612 193.864,434.877 C196.86,435.142 199.732,435.415 200.245,435.484 C200.759,435.553 202.475,435.707 204.058,435.827 C206.819,436.036 206.938,436.075 206.938,436.783 C206.938,437.434 206.801,437.516 205.77,437.484 C205.128,437.465 204.393,437.398 204.136,437.337 C203.879,437.276 200.377,436.939 196.354,436.588 C192.331,436.238 185.467,435.607 181.102,435.186 C176.736,434.765 171.623,434.277 169.74,434.102 C160.366,433.231 156.322,432.82 155.991,432.705 C155.791,432.635 155.667,432.325 155.715,432.015 C155.821,431.441 156.452,431.513 156.9,431.489 z M145.617,430.287 L148.651,430.5 C152.335,430.758 152.817,430.883 152.706,431.552 C152.622,432.064 152.149,432.575 151.842,432.485 C151.756,432.461 150.321,432.302 148.651,432.132 C145.715,431.835 145.617,431.8 145.617,431.056 L145.617,430.287 z M185.616,426.056 C186.357,426.081 186.019,426.056 186.628,426.119 C187.441,426.215 188.989,426.383 190.068,426.492 C191.848,426.673 192.022,426.754 191.936,427.359 C191.821,428.163 191.449,428.205 187.95,427.814 C185.124,427.497 184.639,427.279 184.953,426.462 C185.074,426.14 185.309,426.119 185.616,426.056 z M179.675,382.491 C180.909,382.492 182.128,382.622 183.335,382.86 C184.618,383.145 185.867,383.327 186.109,383.265 C186.351,383.202 186.424,383.215 186.271,383.295 C186.118,383.375 186.936,383.915 188.088,384.496 C189.239,385.076 190.817,386.035 191.594,386.629 C192.371,387.222 193.151,387.618 193.328,387.508 C193.504,387.399 193.561,387.453 193.453,387.627 C193.345,387.802 193.566,388.209 193.944,388.532 C194.623,389.111 194.626,389.11 194.17,388.495 C193.741,387.917 193.747,387.903 194.261,388.306 C194.564,388.545 194.742,388.81 194.656,388.896 C194.57,388.982 194.972,389.698 195.55,390.486 C199.367,395.698 200.666,402.035 199.141,408.008 C198.114,412.03 196.712,414.57 193.983,417.352 C190.01,421.402 185.482,423.421 180.06,423.561 C178.212,423.609 177.674,423.728 177.571,424.113 C177.457,424.534 177.434,424.53 177.403,424.083 L177.403,424.083 C177.366,423.549 176.93,423.411 174.111,423.038 C172.287,422.796 168.905,421.159 166.537,419.371 C164.731,418.008 162.574,415.538 161.32,413.397 C158.818,409.129 158.008,402.952 159.297,397.973 C160.157,394.65 161.744,391.697 164.034,389.16 C165.02,388.068 165.726,387.064 165.604,386.929 C165.482,386.794 165.568,386.79 165.795,386.922 C166.043,387.065 166.475,386.909 166.884,386.528 C167.766,385.706 171.503,383.819 173.48,383.197 C175.484,382.563 177.598,382.562 179.675,382.491 z M221.4,407.454 L221.469,407.58 C221.559,407.805 221.548,408.073 221.444,408.177 C221.341,408.28 221.267,408.096 221.281,407.768 C221.307,407.505 221.251,407.602 221.4,407.454 z M221.401,404.981 L221.462,405.07 C221.549,405.284 221.549,405.634 221.462,405.848 C221.376,406.062 221.305,405.887 221.305,405.459 C221.321,405.113 221.284,405.272 221.401,404.981 z M221.711,402.715 C221.785,402.81 221.754,402.753 221.788,402.895 C221.862,403.282 221.859,403.842 221.781,404.14 C221.703,404.438 221.643,404.121 221.646,403.436 L221.646,403.436 C221.645,403.193 221.649,402.951 221.711,402.715 z M221.485,399.866 C221.55,399.871 221.624,399.849 221.679,399.882 C221.899,400.015 221.857,400.319 221.813,400.522 C221.707,400.838 221.634,400.838 221.438,400.522 L221.438,400.521 C221.304,400.304 221.278,400.042 221.381,399.939 L221.485,399.866 z M204.215,395.608 C204.803,395.61 204.532,395.592 205.028,395.648 C205.65,395.728 207.245,395.879 208.572,395.983 C210.844,396.163 210.984,396.217 210.984,396.908 C210.984,397.854 210.826,397.911 208.961,397.644 C208.105,397.521 206.622,397.409 205.667,397.393 C204.711,397.378 203.855,397.293 203.766,397.203 C203.676,397.114 203.669,396.694 203.75,396.272 C203.837,395.837 203.823,395.799 204.215,395.608 z M149.961,395.187 C151.146,395.171 152.327,395.291 153.507,395.389 C155.743,395.578 155.889,395.635 155.889,396.322 C155.889,396.949 155.742,397.05 154.877,397.019 C154.321,396.999 153.655,396.934 153.398,396.874 C153.142,396.815 152.091,396.726 151.064,396.677 C149.396,396.598 149.186,396.513 149.097,395.888 C149.026,395.224 149.44,395.246 149.961,395.187 z M209.946,395.244 L210.128,395.292 C210.342,395.379 210.167,395.449 209.739,395.449 C209.311,395.449 209.136,395.379 209.35,395.292 C209.665,395.208 209.469,395.244 209.946,395.244 z M210.569,393.999 L210.751,394.047 C210.965,394.134 210.79,394.204 210.362,394.204 C209.934,394.204 209.759,394.134 209.973,394.047 C210.288,393.963 210.092,393.999 210.569,393.999 z M196.594,390.829 C196.768,390.829 196.991,391.04 197.089,391.296 C197.188,391.553 197.22,391.763 197.161,391.763 C197.102,391.763 196.879,391.553 196.666,391.296 C196.442,391.027 196.412,390.829 196.594,390.829 z M187.405,372.807 C187.876,372.79 188.261,372.916 188.261,373.087 C188.261,373.258 188.226,373.384 188.183,373.367 C188.14,373.35 187.755,373.224 187.327,373.087 L186.549,372.838 L187.405,372.807 z M185.044,372.832 L185.226,372.881 C185.44,372.967 185.265,373.038 184.837,373.038 C184.409,373.038 184.234,372.967 184.448,372.881 C184.763,372.796 184.567,372.832 185.044,372.832 z M186.825,368.516 C186.969,368.762 186.907,368.638 187.016,368.885 C187.381,369.735 187.381,369.974 187.016,369.974 C186.845,369.974 186.715,369.589 186.727,369.118 C186.731,368.994 186.736,368.675 186.764,368.565 C186.771,368.54 186.805,368.533 186.825,368.516 z M185.915,367.878 C185.993,367.941 185.959,367.896 185.991,368.029 C186.065,368.414 186.065,369.044 185.991,369.429 C185.916,369.815 185.856,369.499 185.856,368.729 C185.852,368.443 185.861,368.159 185.915,367.878 z M181.743,364.371 C181.904,364.371 182.036,364.511 182.036,364.682 C182.036,364.854 181.817,364.994 181.55,364.994 C181.283,364.994 181.152,364.854 181.257,364.682 C181.363,364.511 181.582,364.371 181.743,364.371 z M168.858,354.467 L169.04,354.516 C169.254,354.602 169.079,354.673 168.651,354.673 C168.223,354.673 168.048,354.602 168.262,354.516 C168.577,354.431 168.381,354.467 168.858,354.467 z M222.956,396.559 C222.807,396.708 222.863,396.611 222.837,396.873 C222.824,397.202 222.897,397.385 223.001,397.282 C223.104,397.178 223.115,396.91 223.025,396.685 L222.956,396.559 z M222.397,393.999 C221.92,393.999 222.116,393.963 221.801,394.047 C221.587,394.134 221.762,394.204 222.19,394.204 C222.618,394.204 222.793,394.134 222.579,394.047 L222.397,393.999 z M185.916,358.289 C185.799,358.581 185.836,358.422 185.82,358.768 C185.82,359.196 185.891,359.371 185.977,359.157 C186.063,358.943 186.063,358.593 185.977,358.379 L185.916,358.289 z" fill="#4F7280"/>
        <path d="M195.521,358.589 C198.402,359.413 201.959,361.723 204.447,363.404 C209.419,366.84 216.258,374.315 219.113,379.432 C220.812,382.479 221.906,385.039 221.779,385.675 C221.672,386.217 221.646,386.227 221.61,385.741 L221.61,385.741 C221.555,385 220.601,383.281 220.052,382.933 C219.69,382.705 219.69,382.621 220.052,382.389 C220.383,382.175 220.328,382.073 219.804,381.929 C219.213,381.767 218.566,380.536 218.715,379.857 C218.813,379.407 218.208,379.629 218.023,380.11 C217.921,380.378 217.681,380.5 217.49,380.383 C217.239,380.227 217.244,380.106 217.51,379.942 C217.756,379.79 217.454,379.3 216.592,378.456 C215.475,377.361 215.32,377.044 215.402,376.03 C215.464,375.274 215.358,374.834 215.101,374.777 C214.882,374.729 214.847,374.761 215.023,374.848 C215.625,375.147 215.341,375.821 214.527,376.025 C213.529,376.276 213.257,376.059 213.779,375.429 C214.014,375.146 214.043,374.954 213.85,374.954 C213.672,374.954 213.471,375.12 213.404,375.322 C213.329,375.547 213.051,375.601 212.686,375.461 C212.232,375.286 212.188,375.173 212.499,374.98 C212.79,374.801 211.563,373.391 208.21,370.052 C205.627,367.48 203.514,365.229 203.514,365.05 C203.514,364.871 203.253,364.642 202.935,364.541 C202.616,364.44 201.912,363.87 201.371,363.275 C200.829,362.679 200.117,362.192 199.789,362.192 C199.461,362.192 199.092,362.03 198.97,361.832 C198.811,361.574 199.048,361.526 199.808,361.662 C200.713,361.825 200.783,361.798 200.284,361.478 C199.964,361.271 199.254,360.809 198.707,360.45 C198.161,360.092 197.373,359.708 196.956,359.597 C195.958,359.332 195.235,358.85 195.476,358.609 L195.521,358.589 z" fill="#4F7280"/>
        <path d="M194.271,379.445 C194.657,379.757 194.483,379.592 194.798,379.935 C195.502,380.747 195.544,380.869 195.12,380.869 C194.955,380.869 194.675,380.598 194.498,380.267 L194.498,380.267 C194.402,380.078 194.216,379.741 194.189,379.535 C194.184,379.495 194.243,379.475 194.271,379.445 z" fill="#4F7280"/>
        <path d="M210.032,372.464 C210.213,372.464 210.362,372.604 210.362,372.776 C210.362,372.947 210.3,373.087 210.224,373.087 C210.149,373.087 210,372.947 209.895,372.776 C209.789,372.604 209.851,372.464 210.032,372.464 z" fill="#4F7280"/>
      </g>
      <path d="M514.227,512.797 C513.729,512.794 513.946,512.834 513.569,512.718 C512.842,512.531 504.75,511.53 495.587,510.492 C486.424,509.455 478.724,508.403 478.476,508.155 C478.227,507.906 479.558,494.122 481.432,477.523 C483.306,460.925 484.671,447.176 484.466,446.971 C484.09,446.594 464.981,444.201 462.249,444.188 C461.07,444.182 460.943,443.877 461.603,442.643 C462.055,441.798 462.161,440.813 461.837,440.455 C461.514,440.097 461.734,440.084 462.326,440.426 C463.046,440.841 466.183,438.318 471.786,432.816 C476.396,428.289 481.266,423.669 482.609,422.55 C484.827,420.701 484.939,420.375 483.843,418.981 C482.739,417.579 482.756,417.542 484.039,418.547 C485.614,419.78 487.488,419.093 486.63,417.596 C486.324,417.062 486.382,416.906 486.76,417.249 C487.592,418.004 500.406,405.502 499.801,404.524 C499.567,404.145 499.728,403.937 500.16,404.061 C500.591,404.185 502.633,402.714 504.697,400.791 C506.76,398.869 508.794,397.295 509.216,397.295 C509.638,397.295 511.924,400.252 514.296,403.865 L514.296,403.865 C516.682,407.499 518.99,410.198 519.462,409.907 C519.945,409.608 520.07,409.777 519.749,410.295 C519.214,411.162 529.545,427.944 541.07,444.926 C543.957,449.182 546.173,452.901 545.994,453.192 C545.814,453.483 542.158,453.276 537.87,452.732 C533.581,452.188 528.288,451.615 526.107,451.458 L522.142,451.172 L521.564,455.285 C521.247,457.547 520.233,466.06 519.311,474.203 C518.205,483.782 517.183,493.37 516.018,502.942 C515.716,505.427 515.442,510.724 514.227,512.797 z" fill="#4F7280"/>
      <path d="M292.643,276.355 C297,276.499 301.474,277.872 304.285,281.361 C305.085,282.483 306.387,284.191 307.179,285.156 C308.158,286.351 308.618,288.342 308.618,291.388 C308.618,302.317 298.367,309.613 287.643,306.316 C284.492,305.347 282.308,303.46 280.012,299.723 C277.789,296.105 277.528,288.702 279.478,284.592 C280.941,281.509 285.588,277.973 289.771,276.759 C291.324,276.393 290.374,276.573 292.643,276.355 z M296.492,304.019 C295.504,303.869 294.646,304.29 293.812,304.756 C292.809,305.404 292.916,305.555 294.381,305.566 C295.372,305.571 296.412,305.208 296.691,304.756 C296.879,304.252 296.898,304.506 296.492,304.019 z M291.07,302.437 C289.809,302.437 290.327,302.343 289.494,302.566 C288.928,302.794 289.391,302.981 290.522,302.981 C291.653,302.981 292.116,302.794 291.55,302.566 L291.07,302.437 z M302.139,301.018 L301.669,301.152 C300.244,301.698 299.983,302.288 301.167,302.288 C301.592,302.288 302.167,301.922 302.443,301.475 C302.597,301.05 302.64,301.227 302.139,301.018 z M280.211,289.346 C280.028,290.079 280.061,290.845 280.053,291.595 C280.053,293.631 280.214,294.464 280.41,293.446 C280.606,292.428 280.606,290.762 280.41,289.744 C280.325,289.395 280.417,289.512 280.211,289.346 z" fill="#4F7280"/>
      <g>
        <path d="M485.806,283.209 L486.206,283.144 C488.22,282.819 501.81,281.096 501.88,281.157 C501.886,281.161 502.029,281.895 502.199,282.787 C502.594,284.857 502.941,286.06 503.552,287.48 C504.142,288.85 505.484,291.38 505.678,291.489 C505.755,291.532 506.108,291.997 506.463,292.523 C506.817,293.049 507.274,293.613 507.477,293.775 C507.681,293.938 508.167,294.384 508.557,294.766 C509.756,295.936 513.071,298.104 513,297.67 C512.987,297.593 513.239,297.719 513.56,297.949 C514.797,298.837 518.134,299.45 520.906,299.298 C522.413,299.215 524.055,298.858 526.52,298.076 L527.458,297.779 L527.591,299.359 C527.664,300.228 528.138,304.291 528.645,308.389 C530.535,323.674 531.252,329.938 531.227,330.949 C531.125,335.102 528.926,338.841 525.32,340.993 C523.864,341.862 523.716,341.908 520.567,342.464 C518.779,342.78 516.823,343.088 516.22,343.149 L516.22,343.149 C515.162,343.256 505.529,344.411 496.396,345.525 C492.311,346.023 491.849,346.042 490.244,345.768 C487.406,345.284 485.013,343.995 483.161,341.954 C482.168,340.861 480.915,338.613 480.502,337.183 C480.364,336.704 479.772,332.332 479.187,327.467 C478.602,322.602 477.974,317.414 477.792,315.939 C474.993,293.27 474.984,293.084 476.548,289.89 C477.783,287.365 479.731,285.391 482.128,284.232 C483.275,283.644 484.55,283.428 485.806,283.209 z M486.783,283.763 C485.404,283.962 484.035,284.229 482.736,284.745 C482.531,284.826 482.336,284.934 482.136,285.028 C479.585,286.364 477.589,288.698 476.715,291.364 C475.981,293.601 475.931,295.007 476.438,299.033 C476.673,300.889 477.19,305.183 477.588,308.574 C477.986,311.964 478.512,316.256 478.756,318.112 C479,319.967 479.423,323.409 479.695,325.762 C479.968,328.114 480.458,331.773 480.784,333.894 C481.334,337.465 481.429,337.845 482.064,339.047 C482.441,339.761 482.96,340.556 483.216,340.814 C483.473,341.073 483.697,341.359 483.714,341.45 C483.77,341.749 486.38,343.65 487.395,344.131 C487.939,344.39 489.117,344.753 490.013,344.939 C491.893,345.329 492.225,345.3 508.347,343.349 C513.54,342.721 518.282,342.159 518.885,342.1 C520.999,341.894 523.169,341.309 524.538,340.578 L524.538,340.578 C527.223,339.143 529.042,336.946 530.009,333.971 C530.787,331.577 530.725,330.642 528.796,315.459 C527.41,304.557 526.81,300.371 526.723,301.002 C526.683,301.287 526.747,301.961 526.865,302.499 C526.983,303.037 526.996,303.217 526.895,302.9 C526.793,302.58 526.335,302.043 525.871,301.7 C525.134,301.153 524.918,301.096 524.097,301.231 C523.583,301.316 523.105,301.319 523.035,301.239 C522.965,301.159 523.441,301.019 524.091,300.928 C524.755,300.835 525.152,300.711 524.997,300.645 C524.844,300.58 524.006,300.626 523.134,300.747 L521.549,300.966 L523.208,300.579 C524.772,300.214 524.82,300.189 524.047,300.136 L523.227,300.081 L523.994,299.81 C524.522,299.624 524.146,299.645 522.788,299.876 C520.766,300.222 518.902,300.268 517.218,300.016 C516.693,299.937 516.143,299.925 515.997,299.99 C515.851,300.055 515.799,300.056 515.881,299.992 C516.056,299.858 515,299.402 514.266,299.296 C513.518,299.187 510.635,297.659 509.342,296.685 C508.149,295.787 505.807,293.376 505.742,292.979 C505.695,292.697 504.298,292.816 496.745,293.744 C493.417,294.153 491.217,294.344 491.118,294.232 C491.028,294.13 490.981,293.916 491.015,293.755 C491.064,293.517 491.493,293.417 493.291,293.227 C496.1,292.928 504.616,291.815 504.692,291.737 C504.723,291.704 504.404,291.064 503.983,290.316 C502.93,288.444 502.294,286.986 502.409,286.708 C502.466,286.57 502.422,286.547 502.3,286.653 C502.176,286.761 502.074,286.698 502.04,286.49 C502.009,286.303 501.941,286.209 501.889,286.281 C501.838,286.353 502.037,286.971 502.334,287.655 C502.633,288.346 502.819,289.022 502.753,289.177 C502.636,289.451 502.473,289.079 501.699,286.771 C501.504,286.189 501.401,286.026 501.438,286.358 C501.512,287.012 500.995,287.187 500.419,286.702 C500.211,286.527 499.924,286.365 499.781,286.342 C499.586,286.31 499.578,286.128 499.752,285.594 C499.971,284.918 499.819,284.373 499.576,284.964 C499.484,285.186 499.284,285.229 498.656,285.161 C498.215,285.113 497.521,285.129 497.114,285.195 C496.547,285.287 496.36,285.236 496.318,284.978 C496.287,284.793 495.878,284.359 495.408,284.013 C494.677,283.475 494.425,283.404 493.654,283.517 C492.569,283.676 492.741,283.563 494.286,283.102 C495.244,282.816 494.631,282.844 490.766,283.266 C489.435,283.403 488.108,283.58 486.783,283.763 z M495.385,336.488 C496.108,336.378 495.786,336.425 496.35,336.343 C497.548,336.169 501.838,335.628 505.882,335.139 C518.355,333.634 521.948,333.192 522.835,333.054 C523.605,332.934 523.69,332.965 523.698,333.376 C523.711,333.925 523.672,333.935 519.842,334.358 C518.254,334.533 513.067,335.161 508.315,335.754 C493.92,337.549 494.313,337.513 494.237,337.054 C494.226,336.924 494.194,336.85 494.336,336.744 C494.549,336.584 495.143,336.529 495.385,336.488 z M490.026,337.071 L490.377,337.022 C492.237,336.772 492.331,336.78 492.468,337.202 C492.611,337.641 492.594,337.648 490.636,337.935 C489.418,338.114 488.574,338.149 488.433,338.027 C488.334,337.932 488.177,337.797 488.247,337.638 C488.416,337.255 489.699,337.126 490.026,337.071 z M494.578,332.364 L494.977,332.308 C496.068,332.161 504.487,331.133 519.658,329.296 C521.482,329.075 523.046,328.944 523.132,329.006 C523.218,329.068 523.258,329.264 523.221,329.442 C523.144,329.815 523.599,329.741 515.491,330.703 L515.491,330.703 C505.69,331.866 495.05,333.164 494.363,333.28 C493.796,333.376 493.707,333.33 493.698,332.936 C493.69,332.396 494.153,332.445 494.578,332.364 z M488.851,332.986 L489.086,332.949 C490.98,332.662 491.898,332.717 492,333.127 C492.081,333.45 491.913,333.505 490.042,333.768 C488.275,334.017 487.976,334.011 487.848,333.723 C487.805,333.613 487.712,333.437 487.794,333.316 C487.95,333.082 488.601,333.029 488.851,332.986 z M493.97,328.22 L494.299,328.179 C495.632,328.027 507.34,326.614 513.877,325.816 C522.389,324.776 522.723,324.753 522.793,325.182 C522.864,325.614 522.471,325.688 515.911,326.476 C513.889,326.719 508.969,327.312 504.979,327.793 C492.938,329.247 493.224,329.224 493.213,328.729 C493.206,328.259 493.602,328.287 493.97,328.22 z M487.632,328.919 C487.938,328.867 488.248,328.855 488.558,328.837 C489.236,328.797 490.124,328.709 490.529,328.643 C491.093,328.55 491.305,328.608 491.43,328.887 C491.527,329.105 491.482,329.317 491.32,329.412 C491.171,329.499 491.03,329.555 491.008,329.536 C490.986,329.517 490.186,329.599 489.231,329.719 C487.508,329.935 487.492,329.933 487.408,329.423 C487.355,329.05 487.3,329.089 487.632,328.919 z M510.575,322.735 C511.237,322.64 510.942,322.681 511.458,322.61 C513.356,322.352 513.512,322.36 513.572,322.726 C513.646,323.181 513.281,323.289 511.059,323.462 C509.931,323.55 509.636,323.505 509.535,323.23 C509.507,323.121 509.466,323.061 509.599,322.964 C509.797,322.819 510.35,322.772 510.575,322.735 z M503.782,323.498 C504.493,323.413 504.178,323.446 504.727,323.392 C506.425,323.235 506.665,323.257 506.718,323.578 C506.773,323.91 506.595,323.974 504.826,324.265 C503.375,324.504 502.836,324.522 502.728,324.338 C502.312,323.62 503.32,323.575 503.782,323.498 z M497.504,324.253 C499.478,323.928 499.478,323.928 499.559,324.422 C499.648,324.963 499.863,324.899 496.903,325.215 C495.825,325.33 495.649,325.296 495.594,324.962 C495.535,324.606 495.678,324.553 497.504,324.253 z M506.468,304.475 L509.248,304.139 C510.777,303.954 512.082,303.842 512.149,303.89 C512.27,303.977 513.597,314.488 513.904,317.804 C514.034,319.197 514.005,319.614 513.778,319.666 C513.617,319.702 512.396,319.859 511.064,320.013 C509.733,320.167 508.565,320.236 508.47,320.168 C508.309,320.052 507.073,310.664 506.651,306.35 L506.468,304.475 z M501.165,297.197 C502.63,296.956 503.955,296.774 504.11,296.793 C504.33,296.821 504.42,297.176 504.531,298.447 C504.608,299.338 505.21,304.448 505.868,309.803 C506.526,315.158 507.052,319.746 507.036,319.999 C507.006,320.499 506.933,320.517 502.872,320.989 L501.405,321.16 L500.962,317.543 C500.718,315.553 500.064,310.26 499.509,305.78 L498.5,297.635 L501.165,297.197 z M492.654,302.186 C493.426,302.059 494.204,301.975 494.981,301.892 L497.735,301.612 L497.923,303.001 C498.498,307.255 500.139,320.712 500.106,320.909 C500.05,321.245 499.448,321.407 497.003,321.743 L497.003,321.743 C495.81,321.908 494.708,321.968 494.554,321.878 C494.382,321.777 494.253,321.393 494.219,320.876 C494.188,320.415 493.874,317.668 493.521,314.772 C493.168,311.875 492.687,307.919 492.451,305.981 C492.216,304.042 492.069,302.391 492.125,302.313 C492.259,302.236 492.547,302.207 492.654,302.186 z M478.441,307.604 L478.498,307.677 C478.579,307.81 478.599,307.981 478.545,308.057 C478.49,308.134 478.424,308.025 478.398,307.815 C478.388,307.646 478.362,307.713 478.441,307.604 z M522.565,300.157 C522.628,300.176 523.031,300.033 523.139,300.16 C523.159,300.281 522.741,300.44 522.154,300.537 C521.593,300.629 521.166,300.666 521.204,300.618 C521.578,300.329 522.124,300.261 522.565,300.157 z M503.073,289.554 L503.154,289.572 C503.274,289.622 503.378,289.701 503.386,289.749 C503.394,289.797 503.312,289.851 503.203,289.868 C503.095,289.886 502.99,289.807 502.971,289.692 C502.977,289.579 502.954,289.631 503.073,289.554 z M501.801,288.165 L501.849,288.216 C501.926,288.343 501.963,288.565 501.93,288.709 C501.898,288.854 501.835,288.75 501.79,288.479 C501.764,288.258 501.757,288.362 501.801,288.165 z M498.082,285.845 C498.299,285.81 498.491,285.869 498.509,285.978 C498.527,286.086 498.364,286.204 498.147,286.24 C497.93,286.276 497.738,286.216 497.72,286.108 C497.702,285.999 497.865,285.881 498.082,285.845 z M501.611,284.879 C501.603,284.881 501.587,284.877 501.589,284.885 C501.598,284.922 501.677,285.077 501.697,285.116 C501.792,285.304 501.894,285.561 501.923,285.686 C501.962,285.851 501.993,285.843 502.035,285.659 C502.066,285.519 501.965,285.262 501.808,285.088 C501.684,284.952 501.75,285.022 501.611,284.879 z M500.989,284.962 C500.887,284.979 500.763,285.09 500.714,285.21 C500.665,285.329 500.763,285.405 500.932,285.377 C501.102,285.349 501.225,285.237 501.208,285.129 C501.19,285.02 501.092,284.945 500.989,284.962 z M496.298,283.829 C496.15,284.032 496.177,283.926 496.179,284.137 C496.221,284.392 496.377,284.504 496.632,284.462 C496.887,284.42 496.968,284.308 496.867,284.135 C496.684,283.861 496.61,283.828 496.298,283.829 z M501.294,282.656 C501.29,282.922 501.283,282.78 501.324,283.083 C501.386,283.463 501.452,283.611 501.471,283.413 C501.489,283.215 501.438,282.904 501.357,282.722 C501.324,282.659 501.348,282.677 501.294,282.656 z M498.062,282.439 C497.76,282.489 497.88,282.446 497.689,282.532 C497.563,282.609 497.681,282.636 497.952,282.591 C498.224,282.547 498.327,282.484 498.183,282.451 L498.062,282.439 z" fill="#4F7280"/>
        <path d="M512.008,296.529 C512.113,296.512 512.221,296.631 512.247,296.794 C512.274,296.957 512.261,297.096 512.219,297.103 C512.176,297.11 512.068,296.991 511.979,296.838 C511.889,296.686 511.902,296.547 512.008,296.529 z" fill="#4F7280"/>
        <path d="M524.351,293.486 C524.394,293.479 524.502,293.598 524.591,293.751 C524.68,293.903 524.667,294.042 524.562,294.06 C524.457,294.077 524.349,293.958 524.322,293.795 C524.296,293.632 524.309,293.493 524.351,293.486 z" fill="#4F7280"/>
        <path d="M507.539,282.466 C507.698,282.44 507.983,282.53 508.173,282.666 C508.362,282.802 508.689,282.885 508.9,282.851 C509.11,282.816 509.537,282.928 509.849,283.1 C510.16,283.272 510.505,283.397 510.614,283.379 C510.811,283.347 514.011,284.738 514.493,285.066 C514.63,285.159 515.056,285.4 515.439,285.603 C515.821,285.806 516.094,286.072 516.043,286.194 C515.993,286.316 516.027,286.35 516.12,286.27 C516.212,286.189 516.745,286.43 517.305,286.804 C518.419,287.548 520.84,289.515 521.002,289.807 C521.058,289.908 521.332,290.168 521.611,290.384 C521.889,290.601 522.288,291.009 522.496,291.291 C523.007,291.983 523.828,292.847 524.023,292.898 C524.11,292.921 524.195,293.021 524.212,293.121 C524.27,293.477 523.929,293.319 523.169,292.635 L523.169,292.635 C522.744,292.252 522.375,291.816 522.351,291.665 C522.294,291.323 521.97,291.357 521.868,291.715 C521.826,291.862 521.798,291.73 521.806,291.421 C521.819,290.942 521.755,290.872 521.367,290.936 C520.888,291.015 519.955,290.655 519.908,290.374 C519.893,290.282 519.503,289.936 519.041,289.605 C518.46,289.188 518.167,289.082 518.093,289.263 C518.021,289.436 517.844,289.334 517.564,288.959 C517.333,288.648 516.856,288.301 516.505,288.186 C516.153,288.072 515.853,287.901 515.837,287.805 C515.822,287.71 515.363,287.46 514.819,287.251 C514.204,287.014 513.851,286.763 513.888,286.587 C513.924,286.411 513.58,286.162 512.984,285.933 C512.455,285.73 512.009,285.478 511.992,285.374 C511.974,285.27 511.818,285.209 511.643,285.237 C511.442,285.27 511.35,285.174 511.391,284.975 C511.432,284.777 511.34,284.679 511.145,284.711 C510.955,284.742 510.858,284.644 510.897,284.458 C510.938,284.261 510.871,284.206 510.706,284.303 C510.566,284.384 510.323,284.283 510.165,284.077 C510.007,283.871 509.947,283.689 510.032,283.671 C510.117,283.653 509.945,283.552 509.65,283.447 C509.356,283.342 509.051,283.311 508.974,283.379 C508.897,283.446 508.477,283.279 508.042,283.007 C507.586,282.723 507.373,282.493 507.539,282.466 z" fill="#4F7280"/>
      </g>
      <g>
        <path d="M200.526,3.646 L200.526,32.779 L194.052,32.779 L194.052,9.31 L130.929,9.31 L130.862,38.039 C130.825,53.84 130.795,68.043 130.795,69.601 C130.795,71.158 130.825,78.442 130.862,85.786 L130.929,99.139 L175.439,99.139 L175.439,88.214 C175.439,80.039 175.694,77.276 176.45,77.24 C177.007,77.213 181.195,77.233 185.757,77.285 L194.052,77.379 L194.052,63.531 L200.526,63.531 L200.516,73.849 L200.505,84.167 L191.007,94.831 L181.508,105.495 L124.455,105.613 L124.455,3.646 L200.526,3.646 z" fill="#4F7280"/>
        <path d="M206.265,24.09 L206.612,24.176 C207.883,24.664 237.073,45.039 239.55,47.167 C241.225,48.607 241.519,48.345 226.502,58.802 C220.895,62.707 214.387,67.28 212.041,68.965 C205.656,73.551 205.382,73.48 205.382,67.247 L205.382,61.942 L186.566,61.725 L167.751,61.508 L167.307,34.398 L205.382,34.398 L205.382,29.051 C205.389,27.99 205.377,26.927 205.461,25.868 C205.491,25.488 205.502,24.535 205.873,24.236 C205.981,24.148 206.134,24.139 206.265,24.09 z M212.273,34.398 C212.043,34.398 211.856,35.49 211.856,36.825 L211.856,39.253 L173.011,39.253 L173.011,48.357 L173.01,57.462 L211.451,57.462 L211.713,59.751 C211.868,61.102 212.365,61.888 212.927,61.671 C213.451,61.468 217.97,58.37 222.971,54.788 L232.063,48.274 L227.422,44.932 C216.343,36.956 212.664,34.398 212.273,34.398 z" fill="#4F7280"/>
      </g>
      <g>
        <path d="M55.121,84.078 L67.144,70.583 L79.167,57.088 L85.59,63.126 C90.419,67.667 92.477,70.236 93.885,73.481 C97.001,80.667 96.133,87.392 91.395,92.769 C88.18,96.418 84.916,97.863 79.355,98.098 C73.12,98.361 68.392,96.166 61.321,89.726 L55.121,84.078 z M78.097,64.919 L81.249,68.33 C88.874,76.583 90.021,82.298 85.224,88.14 C83.782,89.896 83.783,89.994 85.228,91.437 C86.654,92.858 86.781,92.86 88.147,91.49 C89.68,89.954 91.407,86.526 92.254,83.342 C93.52,78.584 90.491,71.662 84.305,65.174 C81.183,61.899 81.13,61.879 79.622,63.391 L78.097,64.919 z" fill="#4F7280"/>
        <path d="M54.393,56.185 C54.318,54.712 59.197,50.174 61.825,49.273 C65.633,47.966 69.33,48.756 72.857,51.628 C74.567,53.021 75.977,54.389 75.992,54.669 C76.006,54.948 73.619,57.818 70.686,61.045 L65.355,66.912 L59.895,61.946 C56.891,59.214 54.416,56.622 54.393,56.185 z" fill="#4F7280"/>
        <path d="M45.212,69.843 C45.364,66.861 46.719,64.377 48.514,62.076 L51.349,58.725 L57.069,63.83 C60.214,66.638 62.793,69.119 62.796,69.343 C62.8,69.567 60.453,72.411 57.579,75.664 L52.354,81.578 L49.624,79.19 C46.364,76.129 45.495,74.211 45.212,69.843 z" fill="#4F7280"/>
        <path d="M13.89,24.825 C14.647,22.997 16.368,21.959 17.913,20.852 C23.337,17.026 29.668,18.492 31.834,24.076 C33.191,27.575 32.202,31.926 28.984,36.622 C26.211,40.669 26.005,42.211 27.913,44.658 C29.509,46.705 31.02,46.674 33.458,44.546 C35.993,42.333 38.381,42.345 41.337,44.585 C42.691,45.61 44.06,46.305 44.379,46.129 C44.698,45.953 46.88,47.671 49.227,49.946 L53.495,54.083 L51.255,56.461 L49.014,58.839 L44.751,54.803 C42.407,52.582 39.898,49.993 39.176,49.048 L37.863,47.33 L35.345,49.048 C32.132,51.239 29.35,51.375 26.656,49.471 C21.423,45.771 20.616,40.764 24.371,35.285 C27.702,30.424 28.456,27.851 27.311,25.25 C26.14,22.588 22.95,22.715 19.167,25.576 C16.517,27.58 16.287,27.626 14.849,26.453 C14.005,25.644 14.372,26.156 13.89,24.825 z" fill="#4F7280"/>
      </g>
      <path d="M267.023,36.774 C268.742,36.774 286.792,54.792 286.792,56.508 C286.792,57.967 254.155,90.708 251.662,91.749 C247.881,93.329 242.658,93.111 239.003,91.221 C236.545,89.95 233.259,86.442 232.032,83.778 C230.662,80.804 230.63,74.872 231.969,71.945 C233.388,68.84 265.349,36.774 267.023,36.774 z M247.129,84.063 C245.645,84.063 245.697,85.349 247.246,86.966 C248.666,88.448 248.943,88.541 249.698,87.786 C250.453,87.031 250.396,86.773 249.2,85.499 C248.458,84.709 247.526,84.063 247.129,84.063 z M240.873,85.22 C240.211,85.244 238.363,86.64 238.363,87.117 C238.363,87.84 239.348,87.458 240.358,86.342 C240.925,85.715 241.157,85.211 240.873,85.221 z M238.202,82.613 C237.485,82.931 237.809,82.729 237.224,83.208 C236.597,83.776 236.084,84.456 236.084,84.721 C236.084,85.507 236.761,85.272 237.57,84.205 C237.943,83.536 238.48,83.415 238.202,82.613 z M250.098,80.92 C249.788,80.956 249.927,80.904 249.679,81.065 C249.204,81.541 249.389,82.151 250.395,83.423 C251.947,85.386 252.228,85.492 253.097,84.444 C253.727,82.88 251.571,81.514 250.427,80.929 L250.098,80.92 z M241.426,78.636 C241.267,78.718 241.037,78.727 240.951,78.883 C240.43,79.83 241.262,80.838 241.809,81.528 C243.209,83.018 244.33,83.301 244.938,82.318 C245.346,81.657 243.817,79.719 242.207,78.858 C241.763,78.656 242.02,78.743 241.426,78.636 z M253.666,77.4 C253.069,77.621 253.315,77.477 252.902,77.787 C252.084,78.466 252.148,78.704 253.546,80.163 C255.318,82.012 255.916,82.162 256.408,80.88 C256.62,80.327 256.183,79.403 255.284,78.504 C254.749,77.943 254.414,77.625 253.666,77.4 z M267.156,38.483 C266.405,38.483 243.491,61.366 243.491,62.116 C243.491,62.428 247.398,66.597 252.173,71.379 C256.948,76.162 261.112,80.075 261.426,80.075 C262.184,80.075 285.083,57.18 285.083,56.422 C285.083,56.099 282.977,53.789 280.404,51.289 C277.831,48.79 276.219,47.337 276.821,48.061 C277.621,49.024 277.732,49.491 277.235,49.799 C276.778,50.081 277.581,51.233 279.679,53.305 C281.398,55.003 282.804,56.788 282.804,57.273 C282.804,57.758 279.209,61.741 274.816,66.124 L266.828,74.092 L265.13,73.122 C263.494,72.187 263.432,72.192 263.432,73.264 C263.432,74.261 262.834,74.643 261.581,74.445 C261.346,74.408 261.153,74.898 261.153,75.535 C261.153,77.955 257.878,77.093 256.047,74.19 C255.267,72.952 256.292,71.29 257.541,71.77 C258.022,71.954 258.305,71.641 258.305,70.923 C258.305,69.236 259.879,68.924 261.361,70.317 C262.071,70.983 262.802,71.529 262.986,71.528 C263.17,71.529 260.397,68.644 256.824,65.119 C253.251,61.594 250.171,58.228 249.981,57.639 C249.714,56.812 251.433,54.768 257.523,48.665 C261.862,44.319 265.793,40.762 266.261,40.762 C266.728,40.762 269.16,42.749 271.665,45.178 C274.171,47.606 275.651,48.936 274.954,48.132 C273.432,46.376 273.331,45.634 274.685,46.143 C275.233,46.349 273.894,44.71 271.709,42.5 C269.524,40.291 267.475,38.483 267.156,38.483 z M255.086,65.875 C256.76,65.894 257.618,66.789 257.735,68.421 C257.735,69.093 257.286,70.028 256.738,70.499 C255.054,71.945 254.587,72.054 253.15,71.337 C251.318,70.423 251.16,69.225 252.627,67.36 C253.329,66.418 254.002,66.244 255.086,65.876 z M254.879,67.119 C253.914,67.513 253.519,68.26 253.274,69.211 C253.121,70.242 253.324,70.445 254.355,70.292 C256.067,70.039 257.097,68.384 256.139,67.426 C255.512,66.992 255.909,67.165 254.879,67.119 z M247.414,62.469 C248.647,62.627 249.466,63.564 250.305,64.383 C251.913,66.042 252.1,66.493 251.487,67.232 C250.477,68.449 250.237,68.373 248.086,66.153 C246.9,64.93 246.317,63.863 246.531,63.305 C246.88,62.638 246.62,62.949 247.414,62.469 z M250.204,60.134 C251.661,60.134 254.551,63.259 254.123,64.373 C253.59,65.762 251.833,65.421 250.076,63.586 C248.351,61.786 248.412,60.134 250.204,60.134 z M244.843,75.517 C243.378,75.517 243.555,76.584 245.303,78.292 C246.708,79.667 247.275,79.911 247.883,79.406 C248.526,78.873 248.39,78.474 247.11,77.138 C246.256,76.246 245.235,75.517 244.843,75.517 z M236.606,73.438 C235.979,73.626 236.234,73.487 235.811,73.798 C234.991,74.478 235.055,74.715 236.454,76.175 C238.176,77.972 238.285,78.01 239.503,77.234 C240.218,76.779 240.061,76.392 238.54,74.866 C237.936,74.22 237.434,73.762 236.606,73.438 z M248.268,72.098 C246.787,72.098 246.835,73.383 248.378,74.993 C250.183,76.877 250.787,77.039 251.273,75.773 C251.646,74.799 249.438,72.098 248.268,72.098 z M239.801,70.25 C239.259,70.332 239.472,70.234 239.13,70.462 C238.523,70.966 238.623,71.392 239.654,72.699 C240.354,73.587 241.233,74.328 241.606,74.346 C243.045,74.413 242.978,73.074 241.463,71.493 C240.994,70.943 240.456,70.539 239.801,70.25 z M243.141,66.97 C241.757,66.971 241.672,68.204 242.961,69.577 C244.352,71.057 245.471,71.334 246.081,70.347 C246.522,69.634 244.202,66.971 243.141,66.971 z" fill="#4F7280"/>
      <g>
        <path d="M185.82,205.507 C186.057,205.669 186.355,205.766 186.531,205.993 C187.775,207.598 188.199,209.892 188.806,211.789 C190.455,217.079 191.187,218.442 192.48,218.631 C193.869,218.835 194.785,221.143 199.02,235.104 C204.208,252.21 204.564,255.146 201.93,259.165 C201.221,260.248 199.189,261.792 197.415,262.598 C195.641,263.403 193.14,264.07 191.858,264.079 C188.687,264.102 184.416,261.691 182.834,258.984 C182.117,257.756 179.392,249.635 176.78,240.938 C172.442,226.497 172.142,225.043 173.316,224.184 C174.509,223.311 174.485,222.819 172.992,217.375 C172.107,214.147 171.382,211.071 171.382,210.54 C171.382,209.738 175.977,208.104 185.442,205.537 L185.82,205.507 z M192.25,220.998 L184.165,223.447 C179.718,224.794 175.88,226.096 175.635,226.341 C174.929,227.047 183.623,255.769 185.192,257.911 C185.97,258.974 187.443,260.274 188.465,260.799 C191.018,262.111 192.867,261.992 196.653,260.273 C199.275,259.083 200.064,258.223 200.806,255.747 C201.765,252.544 201.694,252.198 196.878,236.65 C196.088,234.099 194.723,229.534 193.846,226.505 L192.25,220.998 z M179.786,228.532 C180.963,228.532 181.704,230.152 183.767,237.23 C188.911,254.878 189.261,255.558 193.223,255.58 C194.83,255.589 195.349,255.97 195.349,257.138 C195.349,257.989 195.03,258.684 194.639,258.684 C194.249,258.684 193.466,258.846 192.9,259.043 C192.333,259.24 190.814,258.94 189.523,258.377 C187.062,257.302 185.549,254.597 183.427,247.474 C182.793,245.348 181.39,240.72 180.308,237.19 C177.957,229.521 177.897,228.532 179.786,228.532 z M177.397,210.493 L176.89,210.516 L176.202,210.683 C173.686,211.356 173.685,211.364 175.563,217.515 C176.811,221.601 177.311,222.347 178.803,222.347 C181.48,222.347 181.648,221.305 179.911,215.473 C179.356,214.202 179.144,211.325 177.872,210.579 L177.397,210.493 z M178.233,214.693 C179.021,214.775 179.129,215.457 179.32,216.096 C179.585,217.109 179.233,217.699 178.203,217.969 C176.378,218.446 175.308,216.315 176.874,215.323 C177.667,214.852 177.221,215.075 178.233,214.693 z M184.292,208.66 L183.79,208.661 L183.12,208.81 C181.981,209.096 180.962,209.418 180.855,209.525 C180.748,209.632 181.408,212.206 182.321,215.246 C183.91,220.53 184.071,220.752 185.994,220.292 C187.099,220.027 188.116,219.719 188.252,219.607 C188.389,219.495 187.756,216.903 186.846,213.847 C186.253,212.499 186.064,209.605 184.757,208.764 L184.292,208.66 z M184.582,213.07 C185.688,213.07 186.105,213.486 185.926,214.414 C185.538,216.429 182.979,216.654 182.979,214.673 C182.979,213.566 183.475,213.07 184.582,213.07 z" fill="#4F7280"/>
        <path d="M221.599,227.621 C226.302,228.812 224.394,227.979 227.501,229.665 C229.938,231.262 230.546,232.549 233.568,242.504 L236.164,251.053 L234.169,251.811 C233.071,252.228 228.714,253.598 224.485,254.854 C220.256,256.11 216.16,257.138 215.382,257.138 C214.293,257.138 213.598,255.855 212.348,251.533 C211.457,248.45 210.226,244.393 209.613,242.516 C208.205,238.201 209.155,234.173 212.33,230.998 C215.6,227.925 217.253,228.003 221.599,227.621 z M219.747,230.186 C215.347,230.873 211.952,233.641 211.585,238.232 C211.585,240.464 214.787,252.348 215.854,254.073 C216.116,254.497 216.613,254.669 216.958,254.456 C217.303,254.243 216.724,251.078 215.671,247.423 C213.514,239.94 213.727,236.244 216.426,234.353 C218.409,232.965 220.862,232.796 220.862,234.049 C220.862,234.532 219.992,235.733 218.929,236.718 C217.866,237.703 216.999,239.135 217.007,239.899 C217.018,241.33 220.322,252.217 220.93,252.825 C221.376,253.271 231.815,250.374 232.522,249.609 C232.822,249.285 231.902,245.364 230.478,240.896 C228.299,234.058 227.528,232.559 225.609,231.425 C223.524,230.179 222.069,230.218 219.747,230.186 z" fill="#4F7280"/>
      </g>
      <g>
        <path d="M282.846,398.979 L282.846,417.541 L278.721,417.541 L278.721,402.588 L238.503,402.588 L238.46,420.892 C238.437,430.96 238.417,440.009 238.417,441.001 C238.417,441.994 238.437,446.634 238.46,451.314 L238.503,459.821 L266.862,459.821 L266.862,452.86 C266.862,447.652 267.024,445.892 267.507,445.869 C267.861,445.852 270.529,445.864 273.436,445.897 L278.721,445.957 L278.721,437.134 L282.846,437.134 L282.839,443.708 L282.833,450.282 L276.781,457.077 L270.729,463.871 L234.378,463.946 L234.378,398.979 L282.846,398.979 z" fill="#4F7280"/>
        <path d="M286.503,412.005 L286.724,412.06 C287.533,412.371 306.132,425.352 307.709,426.708 C308.777,427.625 308.964,427.459 299.396,434.121 C295.824,436.609 291.677,439.523 290.183,440.596 C286.114,443.518 285.94,443.473 285.94,439.502 L285.94,436.122 L261.703,436.23 L261.681,418.572 L285.94,418.572 L285.94,415.166 C285.944,414.49 285.937,413.812 285.99,413.138 C286.009,412.896 286.017,412.288 286.253,412.098 C286.322,412.042 286.419,412.036 286.503,412.005 z" fill="#4F7280"/>
        <path d="M277.313,403.895 L277.313,417.275 L260.588,417.275 L260.588,437.504 L277.313,437.504 L277.313,444.353 L264.889,444.353 L264.889,458.37 L239.881,458.37 L239.881,403.895 L277.313,403.895 z" fill="#4F7280"/>
      </g>
      <g>
        <path d="M269.734,233.688 L269.734,249.933 L253.489,249.933 L253.489,233.688 L269.734,233.688 z" fill="#4F7280"/>
        <path d="M319.553,194.7 L319.553,249.933 L302.225,249.933 L302.225,194.7 L319.553,194.7 z" fill="#4F7280"/>
        <path d="M277.311,212.569 L285.977,212.923 L294.644,213.276 L294.644,249.933 L277.316,249.933 L277.314,231.251 L277.313,231.251 L277.311,212.569 z" fill="#4F7280"/>
      </g>
      <g>
        <path d="M272.072,476.217 C272.476,476.141 272.887,476.217 273.291,476.25 C276.958,476.827 277.205,478.288 273.998,480.432 C268.227,484.291 253.665,496.672 253.432,497.919 C253.198,499.167 254.195,500.663 257.194,503.566 C258.17,504.511 260.201,503.261 267.74,497.073 C272.875,492.859 277.999,488.38 279.125,487.121 C281.622,484.33 282.435,484.116 283.612,485.936 C285.316,488.57 283.256,491.268 273.12,499.673 C262.576,508.416 260.211,509.968 257.489,509.933 L257.489,509.932 C255.645,509.909 249.239,503.885 247.713,500.742 C246.021,497.255 248.372,494.103 259.634,484.763 C263.317,481.935 266.642,478.458 270.925,476.464 C271.672,476.311 271.29,476.393 272.072,476.217 z" fill="#4F7280"/>
        <path d="M292.533,468.61 C293.43,468.749 293.541,469.408 293.716,470.139 C294.177,472.481 293.712,472.98 282.749,481.888 C273.515,489.392 271.188,490.678 269.682,489.112 C268.36,487.736 269.209,486.721 277.505,479.763 C281.681,476.78 287.78,470.026 292.533,468.61 z" fill="#4F7280"/>
        <path d="M305.382,448.867 C307.736,448.969 309.443,450.476 311.107,451.905 C318.785,458.788 318.648,461.949 310.383,468.633 C307.059,471.322 302.07,475.486 299.298,477.888 C293.677,482.756 292.37,483.264 289.147,481.831 C286.45,480.631 286.335,480.796 293.688,475.316 C298.482,471.744 309.272,462.819 310.693,461.252 C311.24,460.649 308.95,456.761 307.161,455.257 C305.569,453.917 304.95,454.232 297.881,459.976 C293.715,463.361 288.324,468.04 285.902,470.373 L281.498,474.615 L280.69,472.229 C280.246,470.916 280.293,469.119 280.796,468.236 C282.462,465.307 302.099,449.457 304.694,448.945 L305.382,448.867 z" fill="#4F7280"/>
      </g>
      <g>
        <path d="M472.213,359.713 L472.213,376.638 L454.938,376.638 L455.287,373.238 L455.287,373.238 L455.637,369.839 L465.236,369.839 L465.325,364.853 L465.414,359.867 L472.213,359.713 z" fill="#4F7280"/>
        <path d="M425.979,359.732 L428.925,359.948 C430.546,360.067 432.156,360.199 432.504,360.242 C432.852,360.283 433.26,362.462 433.411,365.079 C433.676,369.683 433.774,369.841 436.404,369.913 C443.224,370.101 443.203,370.09 443.203,373.465 L443.203,376.637 L425.979,376.637 L425.979,359.732 z" fill="#4F7280"/>
        <path d="M443.313,330.404 L443.031,333.804 L442.75,337.203 L433.228,337.203 L433.23,342.416 L433.231,347.628 L425.979,347.628 L425.979,339.016 L425.979,339.016 L425.979,330.404 L443.313,330.404 z" fill="#4F7280"/>
        <path d="M472.213,330.404 L472.213,347.628 L464.96,347.628 L464.961,342.416 L464.961,337.203 L460.467,337.514 C456.365,337.799 455.934,337.641 455.538,335.702 C454.474,330.494 454.613,330.404 463.752,330.404 L472.213,330.404 z" fill="#4F7280"/>
      </g>
      <g>
        <path d="M206.253,500.162 L206.253,512.449 L145.04,512.449 L145.04,500.26 L149.336,500.26 C153.529,500.261 153.632,500.328 153.632,503.104 L153.631,505.948 L198.515,505.948 L198.357,503.308 C198.208,500.817 198.428,500.652 202.226,500.415 L206.253,500.162 z" fill="#4F7280"/>
        <path d="M175.677,471.535 C176.567,471.423 193.28,492.646 193.339,493.963 C193.355,494.298 191.675,494.573 189.607,494.573 C185.94,494.573 185.849,494.652 185.849,497.813 L185.849,501.054 L166.633,500.94 L166.307,497.553 C166.076,496.602 166.572,494.833 164.986,494.384 C164.314,494.194 162.635,494.285 161.871,494.307 C159.098,494.402 157.925,494.138 158.267,493.495 C159.739,490.723 174.87,471.638 175.677,471.535 L175.677,471.535 z M182.854,493.82 C181.6,494.181 182.109,493.938 181.267,494.472 C180.214,495.274 180.337,495.368 181.868,494.927 C182.927,494.622 183.523,494.167 183.192,493.917 L182.854,493.82 z" fill="#4F7280"/>
      </g>
      <g>
        <path d="M85.201,29.275 C87.438,30.159 86.524,29.634 88.034,30.677 C92.302,34.034 89.534,41.158 83.962,41.158 C82.541,41.158 81.233,40.398 79.873,38.782 C77.503,35.964 77.76,33.42 80.681,30.811 C82.508,29.253 82.953,29.316 85.201,29.275 z" fill="#4F7280"/>
        <path d="M84.069,18.244 L85.126,18.246 C92.289,18.287 96.078,19.525 100.751,23.35 L102.832,25.053 L100.685,27.109 L98.539,29.166 L94.09,26.817 C90.089,24.706 89.102,24.496 84.292,24.733 C79.876,24.951 78.28,25.41 75.143,27.359 L71.343,29.722 L69.264,27.551 C67.237,25.437 67.219,25.342 68.559,23.862 C69.315,23.027 71.828,21.413 74.143,20.275 C77.352,18.459 80.495,18.288 84.069,18.244 z" fill="#4F7280"/>
        <path d="M81.743,4.791 C91.942,4.266 101.586,6.813 109.579,13.234 L112.21,15.458 L110.389,17.397 C108.159,19.77 107.965,19.776 105.314,17.546 C97.69,11.133 86.942,8.835 76.859,11.462 C72.294,12.651 65.33,16.215 63.674,18.211 C62.364,19.79 61.193,19.614 59.252,17.548 L59.252,17.548 L57.574,15.762 L60.786,13.012 C65.365,9.214 70.938,6.509 76.817,5.462 C78.449,5.171 80.101,5.015 81.743,4.791 z" fill="#4F7280"/>
      </g>
    </g>
  </g>
</svg>
