<?xml version="1.0" encoding="UTF-8"?>
<!DOCTYPE svg PUBLIC "-//W3C//DTD SVG 1.1//EN" "http://www.w3.org/Graphics/SVG/1.1/DTD/svg11.dtd">
<svg version="1.1" xmlns="http://www.w3.org/2000/svg" xmlns:xlink="http://www.w3.org/1999/xlink" x="0" y="0" width="254" height="279" viewBox="0, 0, 254, 279">
  <g id="Home_dark" transform="translate(-550.925, -135.704)">
    <g>
      <g>
        <path d="M730.493,137.204 L804.425,211.136 L804.425,414.204 L552.425,414.204 L552.425,137.204 L730.493,137.204 z" fill="#F0F0F0"/>
        <path d="M730.493,137.204 L804.425,211.136 L804.425,414.204 L552.425,414.204 L552.425,137.204 L730.493,137.204 z" fill-opacity="0" stroke="#BCBCBC" stroke-width="1"/>
      </g>
      <path d="M576.609,161.865 L733.609,161.865 L733.609,202.865 L576.609,202.865 L576.609,161.865 z" fill="#D4D4D4"/>
      <g>
        <path d="M710.443,326.365 L782.109,326.365 L782.109,396.031 L710.443,396.031 L710.443,326.365 z" fill="#EDEBEB"/>
        <path d="M710.443,326.365 L782.109,326.365 L782.109,396.031 L710.443,396.031 L710.443,326.365 z" fill-opacity="0" stroke="#C1C1C1" stroke-width="0.5"/>
      </g>
      <path d="M576.292,221.932 L781.625,221.932 L781.625,225.266 L576.292,225.266 L576.292,221.932 z" fill="#868686"/>
      <path d="M575.625,242.682 L780.958,242.682 L780.958,246.016 L575.625,246.016 L575.625,242.682 z" fill="#868686"/>
      <path d="M575.625,263.432 L780.958,263.432 L780.958,266.766 L575.625,266.766 L575.625,263.432 z" fill="#868686"/>
      <path d="M575.625,284.182 L780.958,284.182 L780.958,287.516 L575.625,287.516 L575.625,284.182 z" fill="#868686"/>
      <path d="M575.625,304.932 L780.958,304.932 L780.958,308.266 L575.625,308.266 L575.625,304.932 z" fill="#868686"/>
      <path d="M575.625,325.682 L700.292,325.682 L700.292,329.016 L575.625,329.016 L575.625,325.682 z" fill="#868686"/>
      <path d="M575.625,346.432 L700.292,346.432 L700.292,349.766 L575.625,349.766 L575.625,346.432 z" fill="#868686"/>
      <path d="M575.625,367.182 L700.292,367.182 L700.292,370.516 L575.625,370.516 L575.625,367.182 z" fill="#868686"/>
      <path d="M575.625,387.932 L700.292,387.932 L700.292,391.266 L575.625,391.266 L575.625,387.932 z" fill="#868686"/>
      <g>
        <path d="M730.493,137.204 L730.658,210.922 L804.425,211.136 L730.493,137.204 z" fill="#F0F0F0"/>
        <path d="M730.493,137.204 L730.658,210.922 L804.425,211.136 L730.493,137.204 z" fill-opacity="0" stroke="#BCBCBC" stroke-width="1"/>
      </g>
    </g>
  </g>
</svg>
