<?xml version="1.0" encoding="UTF-8"?>
<!DOCTYPE svg PUBLIC "-//W3C//DTD SVG 1.1//EN" "http://www.w3.org/Graphics/SVG/1.1/DTD/svg11.dtd">
<svg version="1.1" xmlns="http://www.w3.org/2000/svg" xmlns:xlink="http://www.w3.org/1999/xlink" x="0" y="0" width="1000" height="100" viewBox="0, 0, 1000, 100">
  <g id="Ebene_1">
    <g>
      <g>
        <g>
          <path d="M692.518,26.715 L692.518,44.907 L697.727,44.92 L702.937,44.934 L695.338,53.299 C691.159,57.9 687.648,61.759 687.536,61.874 L687.332,62.084 L671.747,44.934 L676.935,44.92 L682.122,44.907 L682.122,26.715 L692.518,26.715 z" fill="#A6A6A6"/>
          <path d="M663.93,26.715 L663.93,62.071 L653.48,62.071 L653.48,41.807 L648.309,48.271 C645.465,51.826 643.114,54.734 643.084,54.734 C643.055,54.734 640.703,51.826 637.859,48.271 L632.689,41.807 L632.689,62.071 L622.293,62.071 L622.293,26.715 L627.504,26.717 L632.716,26.719 L637.879,33.187 C640.719,36.745 643.061,39.655 643.085,39.655 C643.108,39.655 645.457,36.744 648.304,33.185 L653.48,26.715 L663.93,26.715 z" fill="#A6A6A6"/>
        </g>
        <path d="M709.91,16.699 L710.478,16.824 C711.456,17.04 712.312,17.375 713.017,17.817 C715.108,19.128 716.43,21.216 716.703,23.635 C716.747,24.024 716.759,31.332 716.747,50.349 L716.73,76.528 L716.613,77.031 C716.275,78.48 715.731,79.585 714.838,80.631 C713.758,81.897 712.291,82.752 710.466,83.177 L709.964,83.295 L662.831,83.3 C636.909,83.304 615.614,83.297 615.51,83.286 C614.639,83.192 613.527,82.866 612.785,82.487 C610.609,81.377 609.195,79.53 608.62,77.049 L608.5,76.528 L608.483,50.349 C608.471,31.653 608.483,24.021 608.526,23.646 C608.8,21.213 610.117,19.132 612.213,17.817 C612.915,17.376 613.776,17.041 614.773,16.82 L615.32,16.699 L709.91,16.699 z M671.315,21.866 C656.669,21.865 642.022,21.865 627.376,21.886 C624.577,21.89 621.779,21.894 618.98,21.905 C618.477,21.906 617.974,21.909 617.47,21.911 C616.913,21.914 616.33,21.904 615.769,21.93 C614.812,22.129 614.011,22.884 613.768,23.815 C613.681,24.149 613.675,25.762 613.672,49.954 C613.67,68.58 613.685,75.817 613.729,76.025 C613.932,77.002 614.718,77.813 615.691,78.048 C616.068,78.14 708.926,78.158 709.426,78.067 C710.44,77.882 711.288,77.047 711.501,76.025 C711.586,75.616 711.586,24.379 711.501,23.971 C711.292,22.965 710.465,22.139 709.46,21.93 C696.746,21.852 684.03,21.872 671.315,21.867 z" fill="#A6A6A6"/>
        <g>
          <path d="M623.661,65.891 L626.789,65.891 L628.503,68.732 L630.217,65.891 L633.354,65.891 L633.354,73.313 L630.56,73.313 L630.56,70.536 Q630.56,69.483 630.7,68.397 L630.489,68.397 Q630.305,68.935 629.76,69.876 L628.503,72.042 L627.255,69.876 Q626.71,68.929 626.526,68.397 L626.306,68.397 Q626.456,69.403 626.456,70.536 L626.456,73.313 L623.661,73.313 z" fill="#A6A6A6"/>
          <path d="M637.485,65.891 L640.323,65.891 L643.549,73.313 L640.438,73.313 L640.007,71.84 L637.669,71.84 L637.212,73.313 L634.286,73.313 z M638.847,67.918 L638.065,70.509 L639.612,70.509 z" fill="#A6A6A6"/>
          <path d="M644.384,65.891 L648.787,65.891 Q650.281,65.891 651.208,66.36 Q652.135,66.828 652.135,67.69 Q652.135,68.397 651.471,68.895 Q650.808,69.392 649.481,69.679 Q651.142,69.839 651.537,70.956 L652.372,73.313 L649.244,73.313 L648.787,71.26 Q648.664,70.738 648.378,70.499 Q648.092,70.259 647.504,70.259 L647.24,70.259 L647.24,73.313 L644.384,73.313 z M647.24,67.333 L647.24,68.924 L647.864,68.924 Q648.532,68.924 648.883,68.685 Q649.235,68.445 649.235,68.078 Q649.235,67.706 648.927,67.519 Q648.62,67.333 647.996,67.333 z" fill="#A6A6A6"/>
          <path d="M653.392,65.891 L656.248,65.891 L656.248,68.562 L658.41,65.891 L661.24,65.891 L658.849,68.413 L661.609,73.313 L658.41,73.313 L657.021,70.371 L656.248,71.18 L656.248,73.313 L653.392,73.313 z" fill="#A6A6A6"/>
          <path d="M662.11,65.891 L665.687,65.891 Q667.295,65.891 668.358,66.349 Q669.422,66.806 669.874,67.652 Q670.327,68.498 670.327,69.52 Q670.327,71.238 669.048,72.276 Q667.769,73.313 665.3,73.313 L662.11,73.313 z M664.966,67.333 L664.966,71.861 L665.168,71.861 Q667.391,71.861 667.391,69.424 Q667.391,68.482 666.912,67.908 Q666.434,67.333 665.344,67.333 z" fill="#A6A6A6"/>
          <path d="M675.521,65.769 Q677.744,65.769 679.027,66.785 Q680.31,67.801 680.31,69.562 Q680.31,71.329 679.018,72.38 Q677.726,73.43 675.67,73.43 Q673.534,73.43 672.366,72.34 Q671.197,71.249 671.197,69.621 Q671.197,68.493 671.768,67.597 Q672.339,66.7 673.367,66.235 Q674.396,65.769 675.521,65.769 z M675.828,67.333 Q674.967,67.333 674.51,67.934 Q674.053,68.536 674.053,69.578 Q674.053,70.637 674.497,71.241 Q674.941,71.845 675.723,71.845 Q676.496,71.845 676.962,71.222 Q677.428,70.6 677.428,69.562 Q677.428,68.488 676.958,67.91 Q676.487,67.333 675.828,67.333 z" fill="#A6A6A6"/>
          <path d="M687.974,65.891 L688.492,69.642 Q688.633,70.69 688.633,71.334 L688.826,71.334 Q688.844,70.706 689.072,69.243 L689.582,65.891 L692.491,65.891 L690.206,73.313 L687.341,73.313 L686.884,69.807 Q686.699,68.403 686.647,67.61 L686.471,67.61 Q686.409,68.546 686.234,69.807 L685.777,73.313 L682.912,73.313 L680.627,65.891 L683.536,65.891 L684.045,69.243 Q684.274,70.728 684.291,71.334 L684.485,71.334 Q684.485,70.69 684.625,69.642 L685.144,65.891 z" fill="#A6A6A6"/>
          <path d="M693.484,65.891 L696.393,65.891 L697.79,68.243 Q698.414,69.291 698.748,70.057 L698.898,70.057 L698.827,68.802 L698.827,65.891 L701.569,65.891 L701.569,73.313 L698.669,73.313 L697.272,70.962 Q696.648,69.914 696.314,69.142 L696.156,69.142 L696.226,70.398 L696.226,73.313 L693.484,73.313 z" fill="#A6A6A6"/>
        </g>
      </g>
      <g>
        <g>
          <path d="M336.851,57.317 L339.285,64.563 L341.719,71.81 L344.613,64.821 L347.506,57.833 L349.523,57.59 C350.632,57.457 351.613,57.419 351.703,57.506 C351.793,57.592 351.972,61.844 352.1,66.953 L352.334,76.242 L350.94,76.494 C350.174,76.632 349.494,76.695 349.43,76.633 C349.366,76.571 349.123,73.39 348.891,69.564 C348.659,65.738 348.435,62.574 348.393,62.533 C348.351,62.493 346.831,65.67 345.016,69.594 C342.558,74.907 341.566,76.702 341.131,76.621 C340.741,76.549 339.691,74.235 337.963,69.643 C336.541,65.865 335.272,62.892 335.142,63.038 C335.013,63.183 334.525,65.954 334.057,69.197 C333.59,72.439 332.988,75.614 332.721,76.253 C332.394,77.033 331.985,77.414 331.474,77.414 C331.056,77.414 330.714,77.277 330.714,77.109 C330.714,76.668 332.155,63.575 332.396,61.828 C332.567,60.59 332.441,60.175 331.61,59.223 C331.067,58.6 330.691,58.024 330.776,57.942 C330.861,57.86 332.263,57.686 333.891,57.555 L336.851,57.317 z" fill="#A6A6A6"/>
          <path d="M430.81,56.612 L430.569,62.256 L430.327,67.899 L431.75,66.381 C433.513,64.501 434.805,63.838 436.7,63.838 C437.895,63.838 438.353,64.049 439.16,64.973 L440.152,66.109 L440.027,71.761 C439.907,77.222 439.877,77.413 439.126,77.414 C437.458,77.415 436.957,76.227 436.811,71.933 C436.711,68.979 436.527,67.784 436.1,67.321 C435.247,66.394 434.593,66.548 433.048,68.037 C431.652,69.382 430.855,71.299 430.189,74.913 C429.905,76.453 429.834,76.526 428.502,76.632 L427.112,76.743 L427.112,58.895 L426.093,58.18 C425.532,57.787 425.208,57.336 425.371,57.178 C425.535,57.021 426.825,56.829 428.239,56.752 L430.81,56.612 z" fill="#A6A6A6"/>
          <path d="M407.693,62.823 C408.306,62.754 408.849,63.082 409.381,63.334 C410.488,63.886 410.516,63.96 410.293,65.746 C410.167,66.76 410.062,69.639 410.06,72.144 C410.057,76.684 410.054,76.699 409.187,76.699 C408.042,76.699 407.214,75.762 406.894,74.103 L406.635,72.758 L405.099,74.347 C404.255,75.221 403.095,76.108 402.522,76.318 L402.522,76.318 C399.132,77.56 396.057,76.095 395.703,73.068 C395.444,70.853 396.132,69.04 397.963,67.118 C399.984,64.997 402.573,63.845 405.329,63.841 C406.976,63.838 407.461,63.715 407.461,63.302 C407.497,62.968 407.438,63.135 407.693,62.823 z M404.906,66.447 C401.947,66.432 397.671,68.355 398.591,71.978 C398.801,72.559 399.34,73.211 399.788,73.427 C401.811,74.404 404.222,73.103 405.672,70.253 C407.341,66.971 407.341,66.799 405.663,66.526 L404.906,66.447 z" fill="#A6A6A6"/>
          <path d="M369.213,63.798 L369.15,70.246 C369.09,76.499 369.065,76.694 368.323,76.697 C367.903,76.698 367.194,76.372 366.748,75.971 C366.1,75.39 365.936,74.84 365.936,73.251 L365.936,71.259 L364.482,73.354 C363.682,74.506 362.53,75.73 361.922,76.074 L361.922,76.074 C360.882,76.663 358.541,76.867 357.494,76.461 C356.529,76.087 355.999,74.269 355.742,70.447 C355.492,66.748 355.413,66.452 354.383,65.408 L353.29,64.299 L355.257,64.071 C356.338,63.946 357.699,63.842 358.28,63.841 L359.336,63.837 L359.069,67.944 C358.843,71.443 358.893,72.182 359.412,72.946 C360.175,74.068 360.415,74.063 361.846,72.903 C363.163,71.835 364.161,70.114 365.549,66.517 C366.483,64.098 366.559,64.013 367.864,63.907 L369.213,63.798 z" fill="#A6A6A6"/>
          <path d="M451.37,63.843 C453.652,63.849 454.943,64.427 455.593,65.734 C456.016,66.583 455.99,66.894 455.408,68.029 C454.552,69.693 452.328,70.803 448.708,71.373 C447.23,71.605 446.021,71.923 446.021,72.078 C446.021,72.697 448.015,73.818 449.499,74.032 C450.364,74.157 452.049,74.085 453.243,73.873 C454.438,73.66 455.497,73.565 455.598,73.662 C455.698,73.759 455.594,74.232 455.366,74.714 C455.072,75.337 454.392,75.751 453.014,76.145 C447.783,77.642 443.346,76.11 442.324,72.453 C441.118,68.137 445.647,63.827 451.37,63.843 z M450.236,65.779 C448.395,66.148 445.954,67.131 445.65,69.245 C445.65,70.063 446.373,70.09 448.899,69.367 C450.879,68.801 452.438,67.4 452.083,66.508 C451.704,65.742 450.973,65.805 450.236,65.779 z" fill="#A6A6A6"/>
          <path d="M424.702,64.016 L424.594,65.609 C424.534,66.485 424.414,67.271 424.326,67.356 C424.238,67.441 423.589,67.086 422.883,66.567 C421.339,65.432 419.617,65.347 417.956,66.323 C416.047,67.444 415.45,68.69 415.577,71.287 C415.635,72.479 417.821,74.452 419.398,74.737 C420.166,74.876 421.584,74.762 422.801,74.463 C424.863,73.957 424.887,73.961 424.887,74.735 C424.887,75.363 424.51,75.637 422.991,76.109 C417.805,77.723 412.846,75.959 412.122,72.242 C411.569,69.403 413.254,66.617 416.501,65.001 C418.101,64.205 418.894,64.053 421.55,64.036 L424.702,64.016 z" fill="#A6A6A6"/>
          <path d="M389.801,59.55 C389.93,59.55 390.036,60.515 390.036,61.694 L390.036,63.837 L392.631,63.837 C394.058,63.837 395.226,63.989 395.226,64.175 C395.226,64.889 393.511,65.624 391.842,65.624 L390.105,65.624 L389.841,69.02 C389.463,73.88 390.311,75.474 392.791,74.565 C394.242,74.034 394.402,74.096 394.199,75.118 C394.091,75.667 393.653,76.172 393.115,76.369 C391.927,76.804 389.278,76.773 388.46,76.314 C387.1,75.55 386.699,74.051 386.699,69.734 L386.699,65.591 L385.423,65.822 C384.169,66.049 384.152,66.036 384.428,65.034 C384.635,64.282 384.968,63.987 385.704,63.903 C386.628,63.798 386.699,63.669 386.699,62.084 C386.699,60.413 386.728,60.369 388.132,59.964 C388.921,59.736 389.671,59.55 389.801,59.55 z" fill="#A6A6A6"/>
          <path d="M378.956,63.842 C382.679,63.85 382.948,63.986 382.715,65.745 C382.607,66.563 382.471,67.286 382.413,67.353 C382.355,67.419 381.672,67.058 380.895,66.549 C379.296,65.502 377.986,65.39 376.12,66.142 C373.778,67.085 374.499,68.104 378.155,69.015 C382.122,70.004 383.362,70.901 383.362,72.782 C383.362,73.878 381.184,75.84 379.452,76.303 L379.452,76.303 C377.854,76.731 373.718,76.775 372.239,76.381 C371.705,76.239 371.266,75.828 371.203,75.412 C371.1,74.733 371.287,74.691 374.369,74.712 C376.908,74.729 377.87,74.592 378.649,74.101 C379.202,73.753 379.654,73.308 379.654,73.113 C379.654,72.657 377.831,71.871 375.052,71.127 C371.106,70.072 370.034,67.952 372.372,65.827 C373.911,64.428 375.876,63.836 378.956,63.842 z" fill="#A6A6A6"/>
        </g>
        <path d="M414.211,22.586 C417.727,22.586 417.758,22.595 417.758,23.665 C417.758,25.401 419.046,31.142 419.751,32.544 C420.883,34.799 423.312,36.959 425.548,37.702 C428.021,38.523 430.254,38.586 440.039,38.111 C450.162,37.619 454.046,38.503 457.666,42.123 C460.665,45.122 462.102,49.452 462.595,56.978 L462.872,61.206 L460.731,61.206 C458.346,61.206 458.076,60.908 458.076,58.278 C458.076,55.834 456.9,52.435 455.506,50.846 C453.157,48.172 451.915,47.919 439.615,47.621 C430.584,47.402 428.2,47.216 426.488,46.598 C420.628,44.482 417.6,40.713 415.681,33.149 C414.814,29.731 413.762,28.763 413.28,30.94 C411.956,36.927 410.129,40.784 407.449,43.255 C403.402,46.985 400.677,47.611 388.446,47.619 C377.631,47.627 375.603,48.025 373.123,50.626 C371.863,51.948 371.438,52.853 370.905,55.354 C370.543,57.056 370.194,59.021 370.13,59.721 C370.018,60.946 369.926,60.999 367.72,61.125 L365.427,61.255 L365.708,57.517 C366.4,48.323 368.05,44.161 372.27,40.959 C375.985,38.141 380.03,37.681 395.69,38.298 C399.643,38.453 400.987,38.345 402.766,37.729 C406.977,36.271 409.708,31.796 410.389,25.239 L410.664,22.586 L414.211,22.586 z" fill="#A6A6A6"/>
        <g>
          <g>
            <path d="M482.424,55.523 C484.782,55.523 485.586,55.754 486.909,56.809 C487.531,57.305 488.924,58.997 488.791,59.094 C488.169,59.543 485.175,61.389 485.142,61.343 C485.117,61.309 484.914,61.017 484.691,60.693 C484.153,59.915 483.363,59.53 482.303,59.53 C481.199,59.53 480.608,59.917 480.339,60.813 C480.159,61.415 480.177,61.615 480.466,62.208 C480.827,62.946 480.896,62.988 485.079,64.978 C488.561,66.634 489.899,68.328 490.034,71.253 C490.092,72.505 490.034,72.986 489.727,73.801 C488.721,76.469 486.147,77.941 482.543,77.909 C481.587,77.901 480.387,77.793 479.878,77.669 C477.816,77.169 475.493,75.498 474.553,73.838 L474.239,73.284 L476.164,72.161 C477.557,71.349 478.11,71.107 478.166,71.288 C478.332,71.832 480.105,73.35 480.825,73.565 C483.218,74.279 485.393,73.348 485.393,71.609 C485.393,70.539 484.645,69.831 482.557,68.924 C478.612,67.212 477.228,66.209 476.249,64.355 C475.814,63.531 475.766,63.253 475.766,61.551 C475.766,59.85 475.814,59.572 476.246,58.762 C476.886,57.559 477.876,56.639 479.185,56.027 C480.179,55.563 480.436,55.523 482.424,55.523 z" fill="#FFFFFF"/>
            <path d="M482.424,55.523 C484.782,55.523 485.586,55.754 486.909,56.809 C487.531,57.305 488.924,58.997 488.791,59.094 C488.169,59.543 485.175,61.389 485.142,61.343 C485.117,61.309 484.914,61.017 484.691,60.693 C484.153,59.915 483.363,59.53 482.303,59.53 C481.199,59.53 480.608,59.917 480.339,60.813 C480.159,61.415 480.177,61.615 480.466,62.208 C480.827,62.946 480.896,62.988 485.079,64.978 C488.561,66.634 489.899,68.328 490.034,71.253 C490.092,72.505 490.034,72.986 489.727,73.801 C488.721,76.469 486.147,77.941 482.543,77.909 C481.587,77.901 480.387,77.793 479.878,77.669 C477.816,77.169 475.493,75.498 474.553,73.838 L474.239,73.284 L476.164,72.161 C477.557,71.349 478.11,71.107 478.166,71.288 C478.332,71.832 480.105,73.35 480.825,73.565 C483.218,74.279 485.393,73.348 485.393,71.609 C485.393,70.539 484.645,69.831 482.557,68.924 C478.612,67.212 477.228,66.209 476.249,64.355 C475.814,63.531 475.766,63.253 475.766,61.551 C475.766,59.85 475.814,59.572 476.246,58.762 C476.886,57.559 477.876,56.639 479.185,56.027 C480.179,55.563 480.436,55.523 482.424,55.523 z" fill-opacity="0" stroke="#A6A6A6" stroke-width="1"/>
          </g>
          <g>
            <path d="M471.988,55.703 L472.038,63.17 C472.093,71.402 471.973,73.171 471.261,74.627 C470.602,75.975 469.262,77.116 467.813,77.563 C466.443,77.986 463.963,78.036 462.773,77.664 C461.674,77.32 460.578,76.625 459.732,75.735 C458.977,74.94 458.268,73.858 458.413,73.722 C458.457,73.68 459.3,73.158 460.287,72.563 L462.081,71.48 L462.686,72.379 C463.551,73.663 464.719,74.075 466.117,73.587 C466.431,73.478 466.787,73.215 466.909,73.003 C467.071,72.719 467.154,70.376 467.22,64.16 L467.31,55.703 L471.988,55.703 z" fill="#FFFFFF"/>
            <path d="M471.988,55.703 L472.038,63.17 C472.093,71.402 471.973,73.171 471.261,74.627 C470.602,75.975 469.262,77.116 467.813,77.563 C466.443,77.986 463.963,78.036 462.773,77.664 C461.674,77.32 460.578,76.625 459.732,75.735 C458.977,74.94 458.268,73.858 458.413,73.722 C458.457,73.68 459.3,73.158 460.287,72.563 L462.081,71.48 L462.686,72.379 C463.551,73.663 464.719,74.075 466.117,73.587 C466.431,73.478 466.787,73.215 466.909,73.003 C467.071,72.719 467.154,70.376 467.22,64.16 L467.31,55.703 L471.988,55.703 z" fill-opacity="0" stroke="#A6A6A6" stroke-width="1"/>
          </g>
        </g>
      </g>
      <g>
        <path d="M40.663,50.021 L54.384,56.534 Q55.544,57.082 56.007,57.619 Q56.471,58.157 56.471,58.916 Q56.471,59.801 55.923,60.349 Q55.375,60.897 54.469,60.897 Q54.089,60.897 53.636,60.77 Q53.183,60.644 52.53,60.349 L35.921,52.698 Q35.794,52.635 35.52,52.529 Q33.286,51.496 33.286,50.105 Q33.286,48.693 35.626,47.618 L35.794,47.513 L52.53,39.714 Q53.373,39.335 53.773,39.219 Q54.174,39.103 54.469,39.103 Q55.375,39.103 55.923,39.651 Q56.471,40.199 56.471,41.084 Q56.471,41.843 55.997,42.402 Q55.523,42.96 54.384,43.508 z" fill="#A6A6A6"/>
        <path d="M185.345,37.722 L172.994,64.174 Q172.425,65.418 171.94,65.903 Q171.456,66.388 170.802,66.388 Q169.833,66.388 169.084,65.776 Q168.336,65.165 168.336,64.259 Q168.336,63.648 168.905,62.362 L168.947,62.278 L181.278,35.868 Q181.868,34.582 182.353,34.097 Q182.837,33.612 183.491,33.612 Q184.439,33.612 185.198,34.224 Q185.957,34.835 185.957,35.741 Q185.957,36.121 185.83,36.542 Q185.704,36.964 185.345,37.722 z" fill="#A6A6A6"/>
        <path d="M204.454,50.021 L190.712,43.508 Q189.595,42.96 189.121,42.402 Q188.647,41.843 188.647,41.084 Q188.647,40.199 189.173,39.651 Q189.7,39.103 190.586,39.103 Q190.923,39.103 191.355,39.23 Q191.787,39.356 192.588,39.714 L209.281,47.513 L209.45,47.618 Q211.789,48.693 211.789,50.105 Q211.789,51.518 209.534,52.529 Q209.323,52.656 209.197,52.698 L192.525,60.349 Q191.892,60.644 191.439,60.77 Q190.986,60.897 190.586,60.897 Q189.7,60.897 189.173,60.359 Q188.647,59.822 188.647,58.916 Q188.647,58.157 189.1,57.619 Q189.553,57.082 190.712,56.534 z" fill="#A6A6A6"/>
        <path d="M73.448,42.159 L73.448,47.007 L80.34,47.007 L80.34,42.159 L80.003,42.159 Q78.865,42.159 78.264,41.569 Q77.663,40.979 77.663,39.841 Q77.663,38.597 78.285,38.049 Q78.907,37.501 80.34,37.501 L85.778,37.501 Q87.211,37.501 87.812,38.049 Q88.413,38.597 88.413,39.841 Q88.413,40.979 87.833,41.569 Q87.253,42.159 86.136,42.159 L85.778,42.159 L85.778,57.883 L86.136,57.883 Q87.274,57.883 87.865,58.463 Q88.455,59.042 88.455,60.159 Q88.455,61.403 87.844,61.951 Q87.232,62.499 85.778,62.499 L80.34,62.499 Q78.886,62.499 78.274,61.961 Q77.663,61.424 77.663,60.159 Q77.663,59.042 78.264,58.463 Q78.865,57.883 80.003,57.883 L80.34,57.883 L80.34,51.665 L73.448,51.665 L73.448,57.883 L73.785,57.883 Q74.923,57.883 75.524,58.463 Q76.125,59.042 76.125,60.159 Q76.125,61.403 75.503,61.951 Q74.881,62.499 73.448,62.499 L68.01,62.499 Q66.556,62.499 65.944,61.961 Q65.333,61.424 65.333,60.159 Q65.333,59.042 65.923,58.463 Q66.513,57.883 67.652,57.883 L68.01,57.883 L68.01,42.159 L67.652,42.159 Q66.534,42.159 65.955,41.569 Q65.375,40.979 65.375,39.841 Q65.375,38.597 65.976,38.049 Q66.577,37.501 68.01,37.501 L73.448,37.501 Q74.86,37.501 75.492,38.049 Q76.125,38.597 76.125,39.841 Q76.125,40.979 75.524,41.569 Q74.923,42.159 73.785,42.159 z" fill="#A6A6A6"/>
        <path d="M109.911,42.138 L105.506,42.138 L105.506,57.862 L109.047,57.862 Q110.459,57.862 111.071,58.41 Q111.682,58.958 111.682,60.18 Q111.682,61.424 111.071,61.972 Q110.459,62.52 109.047,62.52 L96.527,62.52 Q95.136,62.52 94.525,61.972 Q93.914,61.424 93.914,60.18 Q93.914,58.937 94.515,58.399 Q95.115,57.862 96.527,57.862 L100.068,57.862 L100.068,42.138 L95.663,42.138 L95.537,46.417 L95.537,46.944 Q95.537,47.956 94.978,48.525 Q94.42,49.094 93.429,49.094 Q92.249,49.094 91.69,48.493 Q91.132,47.892 91.132,46.585 L91.132,46.417 L91.363,40.115 Q91.427,38.239 91.88,37.86 Q92.333,37.48 93.724,37.48 L111.851,37.48 Q113.242,37.48 113.695,37.86 Q114.148,38.239 114.232,40.115 L114.443,46.417 L114.443,46.585 Q114.443,47.913 113.916,48.504 Q113.389,49.094 112.209,49.094 Q111.071,49.094 110.575,48.514 Q110.08,47.934 110.038,46.417 z" fill="#A6A6A6"/>
        <path d="M128.733,51.707 L132.759,39.756 Q133.139,38.576 133.813,38.039 Q134.488,37.501 135.605,37.501 L138.893,37.501 Q140.326,37.501 140.948,38.049 Q141.569,38.597 141.569,39.841 Q141.569,40.979 140.969,41.569 Q140.368,42.159 139.23,42.159 L138.893,42.159 L139.483,57.883 L139.841,57.883 Q140.979,57.883 141.548,58.463 Q142.117,59.042 142.117,60.159 Q142.117,61.403 141.517,61.951 Q140.916,62.499 139.483,62.499 L134.74,62.499 Q133.307,62.499 132.706,61.961 Q132.106,61.424 132.106,60.159 Q132.106,59.042 132.685,58.463 Q133.265,57.883 134.403,57.883 L134.74,57.883 L134.445,45.026 L131.368,54.595 Q131.031,55.67 130.409,56.144 Q129.787,56.618 128.691,56.618 Q127.595,56.618 126.952,56.144 Q126.31,55.67 125.972,54.595 L122.916,45.026 L122.621,57.883 L122.958,57.883 Q124.096,57.883 124.676,58.463 Q125.256,59.042 125.256,60.159 Q125.256,61.403 124.644,61.951 Q124.033,62.499 122.621,62.499 L117.858,62.499 Q116.445,62.499 115.834,61.951 Q115.223,61.403 115.223,60.159 Q115.223,59.042 115.803,58.463 Q116.382,57.883 117.52,57.883 L117.858,57.883 L118.469,42.159 L118.132,42.159 Q116.993,42.159 116.393,41.569 Q115.792,40.979 115.792,39.841 Q115.792,38.597 116.414,38.049 Q117.036,37.501 118.469,37.501 L121.757,37.501 Q122.853,37.501 123.517,38.028 Q124.181,38.555 124.602,39.756 z" fill="#A6A6A6"/>
        <path d="M152.319,42.159 L152.319,57.883 L161.909,57.883 L161.909,54.131 Q161.909,52.677 162.425,52.066 Q162.942,51.454 164.143,51.454 Q165.345,51.454 165.893,52.076 Q166.441,52.698 166.441,54.131 L166.441,60.602 Q166.441,61.74 165.998,62.119 Q165.555,62.499 164.228,62.499 L145.11,62.499 Q143.74,62.499 143.15,61.951 Q142.56,61.403 142.56,60.159 Q142.56,58.937 143.14,58.41 Q143.719,57.883 145.11,57.883 L146.965,57.883 L146.965,42.159 L145.11,42.159 Q143.74,42.159 143.15,41.611 Q142.56,41.063 142.56,39.841 Q142.56,38.618 143.182,38.06 Q143.804,37.501 145.153,37.501 L154.132,37.501 Q155.48,37.501 156.102,38.06 Q156.724,38.618 156.724,39.841 Q156.724,41.063 156.113,41.611 Q155.502,42.159 154.132,42.159 z" fill="#A6A6A6"/>
      </g>
      <g>
        <path d="M867.547,30.273 Q868.271,28.97 869.031,28.428 Q869.791,27.885 870.949,27.885 Q872.722,27.885 873.463,28.826 Q874.205,29.767 874.205,32.046 L874.278,41.454 Q874.278,43.951 873.463,44.819 Q872.649,45.688 870.514,45.688 Q868.995,45.688 868.18,44.964 Q867.366,44.24 866.787,42.286 Q865.847,38.849 863.784,37.347 Q861.722,35.845 858.067,35.845 Q852.495,35.845 849.528,39.609 Q846.561,43.372 846.561,50.5 Q846.561,57.592 849.564,61.391 Q852.567,65.191 858.139,65.191 Q861.939,65.191 866.516,62.658 Q871.093,60.125 872.287,60.125 Q873.699,60.125 874.657,61.319 Q875.616,62.513 875.616,64.286 Q875.616,67.47 870.008,70.293 Q864.399,73.115 857.38,73.115 Q847.899,73.115 842.038,66.855 Q836.176,60.595 836.176,50.5 Q836.176,40.766 842.11,34.326 Q848.044,27.885 857.162,27.885 Q859.732,27.885 862.228,28.464 Q864.725,29.043 867.547,30.273 z" fill-opacity="0" stroke="#A6A6A6" stroke-width="4"/>
        <path d="M909.702,29.911 Q910.244,28.753 910.932,28.319 Q911.619,27.885 913.031,27.885 Q915.129,27.885 915.726,28.663 Q916.323,29.441 916.396,31.757 L916.54,38.704 L916.54,39.102 Q916.54,41.237 915.69,42.087 Q914.84,42.938 912.814,42.938 Q910.244,42.938 908.978,40.188 Q908.797,39.79 908.689,39.536 Q907.567,37.293 905.649,36.153 Q903.731,35.013 901.126,35.013 Q897.87,35.013 895.861,36.515 Q893.853,38.016 893.853,40.368 Q893.853,43.697 903.044,45.615 Q904.6,45.941 905.504,46.122 Q912.452,47.641 915.564,50.753 Q918.675,53.865 918.675,59.257 Q918.675,65.914 914.152,69.515 Q909.629,73.115 901.198,73.115 Q897.906,73.115 895.319,72.681 Q892.731,72.247 890.307,71.342 Q889.728,72.283 888.968,72.699 Q888.208,73.115 886.87,73.115 Q884.59,73.115 883.685,72.247 Q882.781,71.378 882.745,69.171 L882.6,60.668 L882.6,60.27 Q882.6,57.882 883.486,56.941 Q884.373,56 886.58,56 Q888.932,56 890.524,59.401 Q890.886,60.234 891.103,60.668 Q892.514,63.454 895.029,64.829 Q897.544,66.204 901.198,66.204 Q904.527,66.204 906.373,64.829 Q908.218,63.454 908.218,60.957 Q908.218,57.085 899.86,55.095 Q897.363,54.516 895.916,54.118 Q888.896,52.273 886.182,49.505 Q883.468,46.737 883.468,41.924 Q883.468,35.737 888.118,31.811 Q892.768,27.885 900.149,27.885 Q902.61,27.885 904.98,28.392 Q907.35,28.898 909.702,29.911 z" fill-opacity="0" stroke="#A6A6A6" stroke-width="4"/>
        <path d="M954.172,29.911 Q954.715,28.753 955.402,28.319 Q956.09,27.885 957.501,27.885 Q959.6,27.885 960.197,28.663 Q960.794,29.441 960.866,31.757 L961.011,38.704 L961.011,39.102 Q961.011,41.237 960.16,42.087 Q959.31,42.938 957.284,42.938 Q954.715,42.938 953.448,40.188 Q953.267,39.79 953.159,39.536 Q952.037,37.293 950.119,36.153 Q948.202,35.013 945.596,35.013 Q942.34,35.013 940.332,36.515 Q938.323,38.016 938.323,40.368 Q938.323,43.697 947.514,45.615 Q949.07,45.941 949.975,46.122 Q956.922,47.641 960.034,50.753 Q963.146,53.865 963.146,59.257 Q963.146,65.914 958.623,69.515 Q954.1,73.115 945.669,73.115 Q942.376,73.115 939.789,72.681 Q937.202,72.247 934.777,71.342 Q934.198,72.283 933.438,72.699 Q932.679,73.115 931.34,73.115 Q929.06,73.115 928.156,72.247 Q927.251,71.378 927.215,69.171 L927.07,60.668 L927.07,60.27 Q927.07,57.882 927.957,56.941 Q928.843,56 931.05,56 Q933.402,56 934.994,59.401 Q935.356,60.234 935.573,60.668 Q936.984,63.454 939.499,64.829 Q942.014,66.204 945.669,66.204 Q948.998,66.204 950.843,64.829 Q952.688,63.454 952.688,60.957 Q952.688,57.085 944.33,55.095 Q941.833,54.516 940.386,54.118 Q933.366,52.273 930.652,49.505 Q927.938,46.737 927.938,41.924 Q927.938,35.737 932.588,31.811 Q937.238,27.885 944.619,27.885 Q947.08,27.885 949.45,28.392 Q951.82,28.898 954.172,29.911 z" fill-opacity="0" stroke="#A6A6A6" stroke-width="4"/>
      </g>
    </g>
  </g>
</svg>
