<?xml version="1.0" encoding="UTF-8"?>
<!DOCTYPE svg PUBLIC "-//W3C//DTD SVG 1.1//EN" "http://www.w3.org/Graphics/SVG/1.1/DTD/svg11.dtd">
<svg version="1.1" xmlns="http://www.w3.org/2000/svg" xmlns:xlink="http://www.w3.org/1999/xlink" x="0" y="0" width="26.679" height="37.669" viewBox="0, 0, 26.679, 37.669">
  <g id="login_dark" transform="translate(-486.66, -208.331)">
    <g>
      <path d="M513.34,223.704 L513.34,246 L486.66,246 L486.66,223.704 L513.34,223.704 z M499.722,229.021 C498.305,229.227 497.356,230.302 497.284,231.723 C497.335,232.732 497.802,233.581 498.685,234.097 L498.047,240.441 L501.953,240.441 L501.464,233.996 C502.236,233.475 502.709,232.668 502.716,231.723 C502.691,230.187 501.496,229.083 500,229.007 L499.722,229.021 z" fill="#FFFFFF"/>
      <path d="M500.083,208.331 L500.624,208.345 C506.238,208.726 510.446,213.246 510.588,218.836 L510.588,221.432 L506.92,221.432 L506.92,218.883 C506.909,215.087 503.815,212.141 500.083,212.047 L499.731,212.056 C496.077,212.304 493.338,215.245 493.246,218.883 L493.246,221.432 L489.578,221.432 L489.578,218.836 C489.655,212.927 494.228,208.479 500.083,208.331 z" fill="#FFFFFF"/>
    </g>
  </g>
</svg>
