<?xml version="1.0" encoding="UTF-8"?>
<!DOCTYPE svg PUBLIC "-//W3C//DTD SVG 1.1//EN" "http://www.w3.org/Graphics/SVG/1.1/DTD/svg11.dtd">
<svg version="1.1" xmlns="http://www.w3.org/2000/svg" xmlns:xlink="http://www.w3.org/1999/xlink" x="0" y="0" width="771" height="242" viewBox="0, 0, 771, 242">
  <g id="Ebene_1">
    <g>
      <path d="M312.484,137.408 Q317.452,137.408 321.376,135.968 Q325.3,134.528 328,131.9 Q330.7,129.272 332.104,125.636 Q333.508,122 333.508,117.536 Q333.508,113.144 332.068,109.472 Q330.628,105.8 327.928,103.208 Q325.228,100.616 321.304,99.176 Q317.38,97.736 312.484,97.736 Q307.588,97.736 303.7,99.176 Q299.812,100.616 297.112,103.208 Q294.412,105.8 292.972,109.472 Q291.532,113.144 291.532,117.536 Q291.532,122 292.972,125.636 Q294.412,129.272 297.112,131.9 Q299.812,134.528 303.7,135.968 Q307.588,137.408 312.484,137.408 z M341.212,172.328 Q341.212,168.584 339.304,166.28 Q337.396,163.976 334.264,162.716 Q331.132,161.456 327.028,160.952 Q322.924,160.448 318.496,160.232 Q314.068,160.016 309.64,159.8 Q305.212,159.584 301.396,158.864 Q298.228,160.016 295.6,161.564 Q292.972,163.112 291.064,165.056 Q289.156,167 288.076,169.376 Q286.996,171.752 286.996,174.56 Q286.996,178.016 288.796,181.04 Q290.596,184.064 294.016,186.26 Q297.436,188.456 302.332,189.752 Q307.228,191.048 313.42,191.048 Q319.036,191.048 324.076,189.68 Q329.116,188.312 332.932,185.828 Q336.748,183.344 338.98,179.888 Q341.212,176.432 341.212,172.328 z M345.748,99.32 L345.748,100.472 Q345.748,101.048 345.316,101.408 Q344.884,101.768 344.236,101.84 L331.492,102.344 Q334.156,105.296 335.596,109.112 Q337.036,112.928 337.036,117.464 Q337.036,122.576 335.272,126.752 Q333.508,130.928 330.304,133.916 Q327.1,136.904 322.564,138.524 Q318.028,140.144 312.484,140.144 Q305.716,140.144 300.532,137.768 Q297.148,139.712 295.096,142.484 Q293.044,145.256 293.044,147.776 Q293.044,151.16 295.276,152.96 Q297.508,154.76 301.108,155.624 Q304.708,156.488 309.352,156.74 Q313.996,156.992 318.856,157.208 Q323.716,157.424 328.36,158 Q333.004,158.576 336.604,160.088 Q340.204,161.6 342.436,164.408 Q344.668,167.216 344.668,171.896 Q344.668,176.216 342.472,180.212 Q340.276,184.208 336.172,187.232 Q332.068,190.256 326.272,192.092 Q320.476,193.928 313.348,193.928 Q306.076,193.928 300.496,192.416 Q294.916,190.904 291.136,188.276 Q287.356,185.648 285.448,182.192 Q283.54,178.736 283.54,174.848 Q283.54,169.016 287.5,164.732 Q291.46,160.448 298.3,158.144 Q294.412,156.992 292.072,154.76 Q289.732,152.528 289.732,148.424 Q289.732,146.984 290.344,145.364 Q290.956,143.744 292.072,142.196 Q293.188,140.648 294.772,139.208 Q296.356,137.768 298.372,136.688 Q293.404,133.808 290.668,128.876 Q287.932,123.944 287.932,117.464 Q287.932,112.424 289.66,108.284 Q291.388,104.144 294.592,101.156 Q297.796,98.168 302.332,96.512 Q306.868,94.856 312.484,94.856 Q317.164,94.856 321.088,96.008 Q325.012,97.16 328.036,99.32 z" fill="#FFFFFF"/>
      <path d="M312.484,137.408 Q317.452,137.408 321.376,135.968 Q325.3,134.528 328,131.9 Q330.7,129.272 332.104,125.636 Q333.508,122 333.508,117.536 Q333.508,113.144 332.068,109.472 Q330.628,105.8 327.928,103.208 Q325.228,100.616 321.304,99.176 Q317.38,97.736 312.484,97.736 Q307.588,97.736 303.7,99.176 Q299.812,100.616 297.112,103.208 Q294.412,105.8 292.972,109.472 Q291.532,113.144 291.532,117.536 Q291.532,122 292.972,125.636 Q294.412,129.272 297.112,131.9 Q299.812,134.528 303.7,135.968 Q307.588,137.408 312.484,137.408 z M341.212,172.328 Q341.212,168.584 339.304,166.28 Q337.396,163.976 334.264,162.716 Q331.132,161.456 327.028,160.952 Q322.924,160.448 318.496,160.232 Q314.068,160.016 309.64,159.8 Q305.212,159.584 301.396,158.864 Q298.228,160.016 295.6,161.564 Q292.972,163.112 291.064,165.056 Q289.156,167 288.076,169.376 Q286.996,171.752 286.996,174.56 Q286.996,178.016 288.796,181.04 Q290.596,184.064 294.016,186.26 Q297.436,188.456 302.332,189.752 Q307.228,191.048 313.42,191.048 Q319.036,191.048 324.076,189.68 Q329.116,188.312 332.932,185.828 Q336.748,183.344 338.98,179.888 Q341.212,176.432 341.212,172.328 z M345.748,99.32 L345.748,100.472 Q345.748,101.048 345.316,101.408 Q344.884,101.768 344.236,101.84 L331.492,102.344 Q334.156,105.296 335.596,109.112 Q337.036,112.928 337.036,117.464 Q337.036,122.576 335.272,126.752 Q333.508,130.928 330.304,133.916 Q327.1,136.904 322.564,138.524 Q318.028,140.144 312.484,140.144 Q305.716,140.144 300.532,137.768 Q297.148,139.712 295.096,142.484 Q293.044,145.256 293.044,147.776 Q293.044,151.16 295.276,152.96 Q297.508,154.76 301.108,155.624 Q304.708,156.488 309.352,156.74 Q313.996,156.992 318.856,157.208 Q323.716,157.424 328.36,158 Q333.004,158.576 336.604,160.088 Q340.204,161.6 342.436,164.408 Q344.668,167.216 344.668,171.896 Q344.668,176.216 342.472,180.212 Q340.276,184.208 336.172,187.232 Q332.068,190.256 326.272,192.092 Q320.476,193.928 313.348,193.928 Q306.076,193.928 300.496,192.416 Q294.916,190.904 291.136,188.276 Q287.356,185.648 285.448,182.192 Q283.54,178.736 283.54,174.848 Q283.54,169.016 287.5,164.732 Q291.46,160.448 298.3,158.144 Q294.412,156.992 292.072,154.76 Q289.732,152.528 289.732,148.424 Q289.732,146.984 290.344,145.364 Q290.956,143.744 292.072,142.196 Q293.188,140.648 294.772,139.208 Q296.356,137.768 298.372,136.688 Q293.404,133.808 290.668,128.876 Q287.932,123.944 287.932,117.464 Q287.932,112.424 289.66,108.284 Q291.388,104.144 294.592,101.156 Q297.796,98.168 302.332,96.512 Q306.868,94.856 312.484,94.856 Q317.164,94.856 321.088,96.008 Q325.012,97.16 328.036,99.32 z" fill-opacity="0" stroke="#FFFFFF" stroke-width="2"/>
    </g>
    <g>
      <path d="M413.068,124.664 Q413.068,118.256 411.232,113.252 Q409.396,108.248 406.192,104.792 Q402.988,101.336 398.596,99.536 Q394.204,97.736 389.092,97.736 Q383.044,97.736 378.256,99.644 Q373.468,101.552 370.012,105.08 Q366.556,108.608 364.432,113.576 Q362.308,118.544 361.66,124.664 z M414.652,158.288 Q413.212,160.088 410.62,161.816 Q408.028,163.544 404.68,164.876 Q401.332,166.208 397.408,167.036 Q393.484,167.864 389.38,167.864 Q382.108,167.864 376.24,165.308 Q370.372,162.752 366.232,157.928 Q362.092,153.104 359.86,146.084 Q357.628,139.064 357.628,130.064 Q357.628,122.288 359.752,115.844 Q361.876,109.4 365.908,104.72 Q369.94,100.04 375.772,97.448 Q381.604,94.856 389.02,94.856 Q394.78,94.856 399.784,96.872 Q404.788,98.888 408.532,102.812 Q412.276,106.736 414.4,112.496 Q416.524,118.256 416.524,125.672 Q416.524,127.184 415.228,127.184 L361.444,127.184 Q361.372,127.904 361.372,128.588 Q361.372,129.272 361.372,130.064 Q361.372,138.56 363.388,145.04 Q365.404,151.52 369.076,155.912 Q372.748,160.304 377.968,162.572 Q383.188,164.84 389.596,164.84 Q395.284,164.84 399.46,163.58 Q403.636,162.32 406.444,160.808 Q409.252,159.296 410.8,158.036 Q412.348,156.776 412.78,156.776 Q413.356,156.776 413.716,157.208 z" fill="#FFFFFF"/>
      <path d="M413.068,124.664 Q413.068,118.256 411.232,113.252 Q409.396,108.248 406.192,104.792 Q402.988,101.336 398.596,99.536 Q394.204,97.736 389.092,97.736 Q383.044,97.736 378.256,99.644 Q373.468,101.552 370.012,105.08 Q366.556,108.608 364.432,113.576 Q362.308,118.544 361.66,124.664 z M414.652,158.288 Q413.212,160.088 410.62,161.816 Q408.028,163.544 404.68,164.876 Q401.332,166.208 397.408,167.036 Q393.484,167.864 389.38,167.864 Q382.108,167.864 376.24,165.308 Q370.372,162.752 366.232,157.928 Q362.092,153.104 359.86,146.084 Q357.628,139.064 357.628,130.064 Q357.628,122.288 359.752,115.844 Q361.876,109.4 365.908,104.72 Q369.94,100.04 375.772,97.448 Q381.604,94.856 389.02,94.856 Q394.78,94.856 399.784,96.872 Q404.788,98.888 408.532,102.812 Q412.276,106.736 414.4,112.496 Q416.524,118.256 416.524,125.672 Q416.524,127.184 415.228,127.184 L361.444,127.184 Q361.372,127.904 361.372,128.588 Q361.372,129.272 361.372,130.064 Q361.372,138.56 363.388,145.04 Q365.404,151.52 369.076,155.912 Q372.748,160.304 377.968,162.572 Q383.188,164.84 389.596,164.84 Q395.284,164.84 399.46,163.58 Q403.636,162.32 406.444,160.808 Q409.252,159.296 410.8,158.036 Q412.348,156.776 412.78,156.776 Q413.356,156.776 413.716,157.208 z" fill-opacity="0" stroke="#FFFFFF" stroke-width="2"/>
    </g>
    <g>
      <path d="M440.284,109.76 Q445.252,102.92 452.128,98.888 Q459.004,94.856 467.14,94.856 Q473.044,94.856 477.472,96.692 Q481.9,98.528 484.816,101.948 Q487.732,105.368 489.208,110.336 Q490.684,115.304 490.684,121.568 L490.684,167 L486.868,167 L486.868,121.568 Q486.868,116.024 485.644,111.632 Q484.42,107.24 481.864,104.18 Q479.308,101.12 475.492,99.5 Q471.676,97.88 466.492,97.88 Q458.716,97.88 452.128,101.948 Q445.54,106.016 440.428,113.216 L440.428,167 L436.612,167 L436.612,96.008 L438.412,96.008 Q439.78,96.008 439.852,97.448 z" fill="#FFFFFF"/>
      <path d="M440.284,109.76 Q445.252,102.92 452.128,98.888 Q459.004,94.856 467.14,94.856 Q473.044,94.856 477.472,96.692 Q481.9,98.528 484.816,101.948 Q487.732,105.368 489.208,110.336 Q490.684,115.304 490.684,121.568 L490.684,167 L486.868,167 L486.868,121.568 Q486.868,116.024 485.644,111.632 Q484.42,107.24 481.864,104.18 Q479.308,101.12 475.492,99.5 Q471.676,97.88 466.492,97.88 Q458.716,97.88 452.128,101.948 Q445.54,106.016 440.428,113.216 L440.428,167 L436.612,167 L436.612,96.008 L438.412,96.008 Q439.78,96.008 439.852,97.448 z" fill-opacity="0" stroke="#FFFFFF" stroke-width="2"/>
    </g>
    <path d="M562.596,111.416 Q558.996,106.592 554.82,104.684 Q550.644,102.776 545.46,102.776 Q535.308,102.776 529.836,110.048 Q524.364,117.32 524.364,130.784 Q524.364,137.912 525.588,142.988 Q526.812,148.064 529.188,151.34 Q531.564,154.616 535.02,156.128 Q538.476,157.64 542.868,157.64 Q549.204,157.64 553.92,154.76 Q558.636,151.88 562.596,146.624 z M575.412,60.944 L575.412,167 L567.78,167 Q565.044,167 564.324,164.336 L563.172,155.48 Q558.492,161.096 552.516,164.552 Q546.54,168.008 538.692,168.008 Q532.428,168.008 527.316,165.596 Q522.204,163.184 518.604,158.504 Q515.004,153.824 513.06,146.84 Q511.116,139.856 511.116,130.784 Q511.116,122.72 513.276,115.772 Q515.436,108.824 519.468,103.712 Q523.5,98.6 529.368,95.684 Q535.236,92.768 542.58,92.768 Q549.276,92.768 554.064,95.036 Q558.852,97.304 562.596,101.336 L562.596,60.944 z" fill="#6DDCAB"/>
    <path d="M626.46,92.912 Q634.452,92.912 640.86,95.576 Q647.268,98.24 651.804,103.136 Q656.34,108.032 658.752,114.98 Q661.164,121.928 661.164,130.496 Q661.164,139.136 658.752,146.048 Q656.34,152.96 651.804,157.856 Q647.268,162.752 640.86,165.38 Q634.452,168.008 626.46,168.008 Q618.396,168.008 611.952,165.38 Q605.508,162.752 600.972,157.856 Q596.436,152.96 594.024,146.048 Q591.612,139.136 591.612,130.496 Q591.612,121.928 594.024,114.98 Q596.436,108.032 600.972,103.136 Q605.508,98.24 611.952,95.576 Q618.396,92.912 626.46,92.912 z M626.46,158 Q637.26,158 642.588,150.764 Q647.916,143.528 647.916,130.568 Q647.916,117.536 642.588,110.264 Q637.26,102.992 626.46,102.992 Q620.988,102.992 616.92,104.864 Q612.852,106.736 610.152,110.264 Q607.452,113.792 606.12,118.94 Q604.788,124.088 604.788,130.568 Q604.788,143.528 610.152,150.764 Q615.516,158 626.46,158 z" fill="#6DDCAB"/>
    <path d="M690.252,60.944 L690.252,123.368 L693.564,123.368 Q695.004,123.368 695.976,122.972 Q696.948,122.576 698.028,121.352 L721.068,96.656 Q722.076,95.432 723.192,94.748 Q724.308,94.064 726.18,94.064 L737.772,94.064 L710.916,122.648 Q708.972,125.096 706.74,126.464 Q708.036,127.328 709.08,128.444 Q710.124,129.56 711.06,131 L739.572,167 L728.124,167 Q726.468,167 725.28,166.46 Q724.092,165.92 723.228,164.48 L699.252,134.6 Q698.172,133.088 697.128,132.62 Q696.084,132.152 693.924,132.152 L690.252,132.152 L690.252,167 L677.364,167 L677.364,60.944 z" fill="#6DDCAB"/>
    <g>
      <path d="M220.704,-0 C232.465,-0 242,9.535 242,21.296 L242,220.704 C242,232.465 232.465,242 220.704,242 L21.296,242 C9.535,242 0,232.465 0,220.704 L0,21.296 C0,9.535 9.535,-0 21.296,-0 L220.704,-0 z M216.832,7.744 L25.168,7.744 C15.545,7.744 7.744,15.545 7.744,25.168 L7.744,216.832 C7.744,226.455 15.545,234.256 25.168,234.256 L216.832,234.256 C226.455,234.256 234.256,226.455 234.256,216.832 L234.256,25.168 C234.256,15.545 226.455,7.744 216.832,7.744 z" fill="#01DBAA"/>
      <path d="M160.211,25.527 L199.824,64.841 L199.824,210.625 C199.824,213.855 197.206,216.473 193.977,216.473 L58.583,216.473 C55.353,216.473 52.735,213.855 52.735,210.625 L52.735,31.375 C52.735,28.145 55.353,25.527 58.583,25.527 L160.211,25.527 z" fill="#01DBAA"/>
      <path d="M186.001,51.122 L199.824,64.841 L199.824,97.254 L162.382,63.91 L186.001,51.122 z" fill="#0ABD95"/>
      <path d="M160.469,25.527 L199.824,65.135 L199.824,65.504 L166.397,65.504 C163.123,65.504 160.469,62.813 160.469,59.492 L160.469,25.527 z" fill="#09BD95"/>
      <path d="M160.644,25.959 L199.824,64.844 L166.491,64.844 C163.262,64.844 160.644,62.225 160.644,58.996 L160.644,25.959 z" fill="#C7FFF2"/>
      <g>
        <path d="M80.211,123.91 L80.211,118.596 L110.921,105.629 L110.921,111.29 L86.568,121.285 L110.921,131.374 L110.921,137.035 z" fill="#C7FFF2"/>
        <path d="M114.495,144.974 L127.937,97.026 L132.491,97.026 L119.081,144.974 z" fill="#C7FFF2"/>
        <path d="M166.744,123.91 L136.034,137.035 L136.034,131.374 L160.355,121.285 L136.034,111.29 L136.034,105.629 L166.744,118.596 z" fill="#C7FFF2"/>
      </g>
    </g>
  </g>
</svg>
