<?xml version="1.0" encoding="UTF-8"?>
<!DOCTYPE svg PUBLIC "-//W3C//DTD SVG 1.1//EN" "http://www.w3.org/Graphics/SVG/1.1/DTD/svg11.dtd">
<svg version="1.1" xmlns="http://www.w3.org/2000/svg" xmlns:xlink="http://www.w3.org/1999/xlink" x="0" y="0" width="38" height="37.669" viewBox="0, 0, 38, 37.669">
  <g id="login_dark">
    <g>
      <path d="M14.112,17.06 C9.413,17.06 5.603,13.251 5.603,8.552 C5.603,3.852 9.413,0.043 14.112,0.043 C18.811,0.043 22.621,3.852 22.621,8.552 C22.621,13.251 18.811,17.06 14.112,17.06 z" fill="#FFFFFF"/>
      <path d="M14.112,14.815 C17.594,14.846 20.937,16.167 23.49,18.541 C23.94,18.961 24.335,19.438 24.757,19.886 L24.757,22.274 L18.674,22.274 C18.194,22.274 17.805,22.663 17.805,23.143 L17.805,28.574 C17.805,29.054 18.194,29.443 18.674,29.443 L24.757,29.443 L24.757,35.429 C21.679,37.472 17.67,37.557 14.112,37.626 C6.473,37.626 0.281,36.285 0.281,28.647 C0.281,21.008 6.473,14.815 14.112,14.815 L14.112,14.815 z" fill="#FFFFFF"/>
      <path d="M25.554,16.336 L30.84,16.336 L30.84,35.381 L25.554,35.381 L25.554,16.336 z" fill="#FFFFFF"/>
      <path d="M18.674,28.502 L18.674,23.216 L37.719,23.216 L37.719,28.502 L18.674,28.502 z" fill="#FFFFFF"/>
    </g>
  </g>
</svg>
